<?xml version="1.0" encoding="utf-8" standalone="no"?>
<!DOCTYPE svg PUBLIC "-//W3C//DTD SVG 1.1//EN"
  "http://www.w3.org/Graphics/SVG/1.1/DTD/svg11.dtd">
<!-- Created with matplotlib (https://matplotlib.org/) -->
<svg height="732.92625pt" version="1.1" viewBox="0 0 1076.767188 732.92625" width="1076.767188pt" xmlns="http://www.w3.org/2000/svg" xmlns:xlink="http://www.w3.org/1999/xlink">
 <metadata>
  <rdf:RDF xmlns:cc="http://creativecommons.org/ns#" xmlns:dc="http://purl.org/dc/elements/1.1/" xmlns:rdf="http://www.w3.org/1999/02/22-rdf-syntax-ns#">
   <cc:Work>
    <dc:type rdf:resource="http://purl.org/dc/dcmitype/StillImage"/>
    <dc:date>2022-07-27T00:52:59.780578</dc:date>
    <dc:format>image/svg+xml</dc:format>
    <dc:creator>
     <cc:Agent>
      <dc:title>Matplotlib v3.3.4, https://matplotlib.org/</dc:title>
     </cc:Agent>
    </dc:creator>
   </cc:Work>
  </rdf:RDF>
 </metadata>
 <defs>
  <style type="text/css">*{stroke-linecap:butt;stroke-linejoin:round;}</style>
 </defs>
 <g id="figure_1">
  <g id="patch_1">
   <path d="M 0 732.92625 
L 1076.767188 732.92625 
L 1076.767188 0 
L 0 0 
z
" style="fill:none;"/>
  </g>
  <g id="axes_1">
   <g id="patch_2">
    <path d="M 65.167188 683.75625 
L 1069.567188 683.75625 
L 1069.567188 31.43625 
L 65.167188 31.43625 
z
" style="fill:#ffffff;"/>
   </g>
   <g id="matplotlib.axis_1">
    <g id="xtick_1">
     <g id="line2d_1">
      <defs>
       <path d="M 0 0 
L 0 3.5 
" id="m6873bdc011" style="stroke:#000000;stroke-width:0.8;"/>
      </defs>
      <g>
       <use style="stroke:#000000;stroke-width:0.8;" x="147.38193" xlink:href="#m6873bdc011" y="683.75625"/>
      </g>
     </g>
     <g id="text_1">
      <!-- 2.1 -->
      <g transform="translate(136.249742 701.394063)scale(0.14 -0.14)">
       <defs>
        <path d="M 19.1875 8.296875 
L 53.609375 8.296875 
L 53.609375 0 
L 7.328125 0 
L 7.328125 8.296875 
Q 12.9375 14.109375 22.625 23.890625 
Q 32.328125 33.6875 34.8125 36.53125 
Q 39.546875 41.84375 41.421875 45.53125 
Q 43.3125 49.21875 43.3125 52.78125 
Q 43.3125 58.59375 39.234375 62.25 
Q 35.15625 65.921875 28.609375 65.921875 
Q 23.96875 65.921875 18.8125 64.3125 
Q 13.671875 62.703125 7.8125 59.421875 
L 7.8125 69.390625 
Q 13.765625 71.78125 18.9375 73 
Q 24.125 74.21875 28.421875 74.21875 
Q 39.75 74.21875 46.484375 68.546875 
Q 53.21875 62.890625 53.21875 53.421875 
Q 53.21875 48.921875 51.53125 44.890625 
Q 49.859375 40.875 45.40625 35.40625 
Q 44.1875 33.984375 37.640625 27.21875 
Q 31.109375 20.453125 19.1875 8.296875 
z
" id="DejaVuSans-50"/>
        <path d="M 10.6875 12.40625 
L 21 12.40625 
L 21 0 
L 10.6875 0 
z
" id="DejaVuSans-46"/>
        <path d="M 12.40625 8.296875 
L 28.515625 8.296875 
L 28.515625 63.921875 
L 10.984375 60.40625 
L 10.984375 69.390625 
L 28.421875 72.90625 
L 38.28125 72.90625 
L 38.28125 8.296875 
L 54.390625 8.296875 
L 54.390625 0 
L 12.40625 0 
z
" id="DejaVuSans-49"/>
       </defs>
       <use xlink:href="#DejaVuSans-50"/>
       <use x="63.623047" xlink:href="#DejaVuSans-46"/>
       <use x="95.410156" xlink:href="#DejaVuSans-49"/>
      </g>
     </g>
    </g>
    <g id="xtick_2">
     <g id="line2d_2">
      <g>
       <use style="stroke:#000000;stroke-width:0.8;" x="366.743109" xlink:href="#m6873bdc011" y="683.75625"/>
      </g>
     </g>
     <g id="text_2">
      <!-- 2.2 -->
      <g transform="translate(355.610921 701.394063)scale(0.14 -0.14)">
       <use xlink:href="#DejaVuSans-50"/>
       <use x="63.623047" xlink:href="#DejaVuSans-46"/>
       <use x="95.410156" xlink:href="#DejaVuSans-50"/>
      </g>
     </g>
    </g>
    <g id="xtick_3">
     <g id="line2d_3">
      <g>
       <use style="stroke:#000000;stroke-width:0.8;" x="586.104288" xlink:href="#m6873bdc011" y="683.75625"/>
      </g>
     </g>
     <g id="text_3">
      <!-- 2.3 -->
      <g transform="translate(574.972101 701.394063)scale(0.14 -0.14)">
       <defs>
        <path d="M 40.578125 39.3125 
Q 47.65625 37.796875 51.625 33 
Q 55.609375 28.21875 55.609375 21.1875 
Q 55.609375 10.40625 48.1875 4.484375 
Q 40.765625 -1.421875 27.09375 -1.421875 
Q 22.515625 -1.421875 17.65625 -0.515625 
Q 12.796875 0.390625 7.625 2.203125 
L 7.625 11.71875 
Q 11.71875 9.328125 16.59375 8.109375 
Q 21.484375 6.890625 26.8125 6.890625 
Q 36.078125 6.890625 40.9375 10.546875 
Q 45.796875 14.203125 45.796875 21.1875 
Q 45.796875 27.640625 41.28125 31.265625 
Q 36.765625 34.90625 28.71875 34.90625 
L 20.21875 34.90625 
L 20.21875 43.015625 
L 29.109375 43.015625 
Q 36.375 43.015625 40.234375 45.921875 
Q 44.09375 48.828125 44.09375 54.296875 
Q 44.09375 59.90625 40.109375 62.90625 
Q 36.140625 65.921875 28.71875 65.921875 
Q 24.65625 65.921875 20.015625 65.03125 
Q 15.375 64.15625 9.8125 62.3125 
L 9.8125 71.09375 
Q 15.4375 72.65625 20.34375 73.4375 
Q 25.25 74.21875 29.59375 74.21875 
Q 40.828125 74.21875 47.359375 69.109375 
Q 53.90625 64.015625 53.90625 55.328125 
Q 53.90625 49.265625 50.4375 45.09375 
Q 46.96875 40.921875 40.578125 39.3125 
z
" id="DejaVuSans-51"/>
       </defs>
       <use xlink:href="#DejaVuSans-50"/>
       <use x="63.623047" xlink:href="#DejaVuSans-46"/>
       <use x="95.410156" xlink:href="#DejaVuSans-51"/>
      </g>
     </g>
    </g>
    <g id="xtick_4">
     <g id="line2d_4">
      <g>
       <use style="stroke:#000000;stroke-width:0.8;" x="805.465468" xlink:href="#m6873bdc011" y="683.75625"/>
      </g>
     </g>
     <g id="text_4">
      <!-- 2.4 -->
      <g transform="translate(794.33328 701.394063)scale(0.14 -0.14)">
       <defs>
        <path d="M 37.796875 64.3125 
L 12.890625 25.390625 
L 37.796875 25.390625 
z
M 35.203125 72.90625 
L 47.609375 72.90625 
L 47.609375 25.390625 
L 58.015625 25.390625 
L 58.015625 17.1875 
L 47.609375 17.1875 
L 47.609375 0 
L 37.796875 0 
L 37.796875 17.1875 
L 4.890625 17.1875 
L 4.890625 26.703125 
z
" id="DejaVuSans-52"/>
       </defs>
       <use xlink:href="#DejaVuSans-50"/>
       <use x="63.623047" xlink:href="#DejaVuSans-46"/>
       <use x="95.410156" xlink:href="#DejaVuSans-52"/>
      </g>
     </g>
    </g>
    <g id="xtick_5">
     <g id="line2d_5">
      <g>
       <use style="stroke:#000000;stroke-width:0.8;" x="1024.826647" xlink:href="#m6873bdc011" y="683.75625"/>
      </g>
     </g>
     <g id="text_5">
      <!-- 2.5 -->
      <g transform="translate(1013.694459 701.394063)scale(0.14 -0.14)">
       <defs>
        <path d="M 10.796875 72.90625 
L 49.515625 72.90625 
L 49.515625 64.59375 
L 19.828125 64.59375 
L 19.828125 46.734375 
Q 21.96875 47.46875 24.109375 47.828125 
Q 26.265625 48.1875 28.421875 48.1875 
Q 40.625 48.1875 47.75 41.5 
Q 54.890625 34.8125 54.890625 23.390625 
Q 54.890625 11.625 47.5625 5.09375 
Q 40.234375 -1.421875 26.90625 -1.421875 
Q 22.3125 -1.421875 17.546875 -0.640625 
Q 12.796875 0.140625 7.71875 1.703125 
L 7.71875 11.625 
Q 12.109375 9.234375 16.796875 8.0625 
Q 21.484375 6.890625 26.703125 6.890625 
Q 35.15625 6.890625 40.078125 11.328125 
Q 45.015625 15.765625 45.015625 23.390625 
Q 45.015625 31 40.078125 35.4375 
Q 35.15625 39.890625 26.703125 39.890625 
Q 22.75 39.890625 18.8125 39.015625 
Q 14.890625 38.140625 10.796875 36.28125 
z
" id="DejaVuSans-53"/>
       </defs>
       <use xlink:href="#DejaVuSans-50"/>
       <use x="63.623047" xlink:href="#DejaVuSans-46"/>
       <use x="95.410156" xlink:href="#DejaVuSans-53"/>
      </g>
     </g>
    </g>
    <g id="text_6">
     <!-- Time [ms] -->
     <g transform="translate(522.008594 721.982813)scale(0.18 -0.18)">
      <defs>
       <path d="M -0.296875 72.90625 
L 61.375 72.90625 
L 61.375 64.59375 
L 35.5 64.59375 
L 35.5 0 
L 25.59375 0 
L 25.59375 64.59375 
L -0.296875 64.59375 
z
" id="DejaVuSans-84"/>
       <path d="M 9.421875 54.6875 
L 18.40625 54.6875 
L 18.40625 0 
L 9.421875 0 
z
M 9.421875 75.984375 
L 18.40625 75.984375 
L 18.40625 64.59375 
L 9.421875 64.59375 
z
" id="DejaVuSans-105"/>
       <path d="M 52 44.1875 
Q 55.375 50.25 60.0625 53.125 
Q 64.75 56 71.09375 56 
Q 79.640625 56 84.28125 50.015625 
Q 88.921875 44.046875 88.921875 33.015625 
L 88.921875 0 
L 79.890625 0 
L 79.890625 32.71875 
Q 79.890625 40.578125 77.09375 44.375 
Q 74.3125 48.1875 68.609375 48.1875 
Q 61.625 48.1875 57.5625 43.546875 
Q 53.515625 38.921875 53.515625 30.90625 
L 53.515625 0 
L 44.484375 0 
L 44.484375 32.71875 
Q 44.484375 40.625 41.703125 44.40625 
Q 38.921875 48.1875 33.109375 48.1875 
Q 26.21875 48.1875 22.15625 43.53125 
Q 18.109375 38.875 18.109375 30.90625 
L 18.109375 0 
L 9.078125 0 
L 9.078125 54.6875 
L 18.109375 54.6875 
L 18.109375 46.1875 
Q 21.1875 51.21875 25.484375 53.609375 
Q 29.78125 56 35.6875 56 
Q 41.65625 56 45.828125 52.96875 
Q 50 49.953125 52 44.1875 
z
" id="DejaVuSans-109"/>
       <path d="M 56.203125 29.59375 
L 56.203125 25.203125 
L 14.890625 25.203125 
Q 15.484375 15.921875 20.484375 11.0625 
Q 25.484375 6.203125 34.421875 6.203125 
Q 39.59375 6.203125 44.453125 7.46875 
Q 49.3125 8.734375 54.109375 11.28125 
L 54.109375 2.78125 
Q 49.265625 0.734375 44.1875 -0.34375 
Q 39.109375 -1.421875 33.890625 -1.421875 
Q 20.796875 -1.421875 13.15625 6.1875 
Q 5.515625 13.8125 5.515625 26.8125 
Q 5.515625 40.234375 12.765625 48.109375 
Q 20.015625 56 32.328125 56 
Q 43.359375 56 49.78125 48.890625 
Q 56.203125 41.796875 56.203125 29.59375 
z
M 47.21875 32.234375 
Q 47.125 39.59375 43.09375 43.984375 
Q 39.0625 48.390625 32.421875 48.390625 
Q 24.90625 48.390625 20.390625 44.140625 
Q 15.875 39.890625 15.1875 32.171875 
z
" id="DejaVuSans-101"/>
       <path id="DejaVuSans-32"/>
       <path d="M 8.59375 75.984375 
L 29.296875 75.984375 
L 29.296875 69 
L 17.578125 69 
L 17.578125 -6.203125 
L 29.296875 -6.203125 
L 29.296875 -13.1875 
L 8.59375 -13.1875 
z
" id="DejaVuSans-91"/>
       <path d="M 44.28125 53.078125 
L 44.28125 44.578125 
Q 40.484375 46.53125 36.375 47.5 
Q 32.28125 48.484375 27.875 48.484375 
Q 21.1875 48.484375 17.84375 46.4375 
Q 14.5 44.390625 14.5 40.28125 
Q 14.5 37.15625 16.890625 35.375 
Q 19.28125 33.59375 26.515625 31.984375 
L 29.59375 31.296875 
Q 39.15625 29.25 43.1875 25.515625 
Q 47.21875 21.78125 47.21875 15.09375 
Q 47.21875 7.46875 41.1875 3.015625 
Q 35.15625 -1.421875 24.609375 -1.421875 
Q 20.21875 -1.421875 15.453125 -0.5625 
Q 10.6875 0.296875 5.421875 2 
L 5.421875 11.28125 
Q 10.40625 8.6875 15.234375 7.390625 
Q 20.0625 6.109375 24.8125 6.109375 
Q 31.15625 6.109375 34.5625 8.28125 
Q 37.984375 10.453125 37.984375 14.40625 
Q 37.984375 18.0625 35.515625 20.015625 
Q 33.0625 21.96875 24.703125 23.78125 
L 21.578125 24.515625 
Q 13.234375 26.265625 9.515625 29.90625 
Q 5.8125 33.546875 5.8125 39.890625 
Q 5.8125 47.609375 11.28125 51.796875 
Q 16.75 56 26.8125 56 
Q 31.78125 56 36.171875 55.265625 
Q 40.578125 54.546875 44.28125 53.078125 
z
" id="DejaVuSans-115"/>
       <path d="M 30.421875 75.984375 
L 30.421875 -13.1875 
L 9.71875 -13.1875 
L 9.71875 -6.203125 
L 21.390625 -6.203125 
L 21.390625 69 
L 9.71875 69 
L 9.71875 75.984375 
z
" id="DejaVuSans-93"/>
      </defs>
      <use xlink:href="#DejaVuSans-84"/>
      <use x="57.958984" xlink:href="#DejaVuSans-105"/>
      <use x="85.742188" xlink:href="#DejaVuSans-109"/>
      <use x="183.154297" xlink:href="#DejaVuSans-101"/>
      <use x="244.677734" xlink:href="#DejaVuSans-32"/>
      <use x="276.464844" xlink:href="#DejaVuSans-91"/>
      <use x="315.478516" xlink:href="#DejaVuSans-109"/>
      <use x="412.890625" xlink:href="#DejaVuSans-115"/>
      <use x="464.990234" xlink:href="#DejaVuSans-93"/>
     </g>
    </g>
   </g>
   <g id="matplotlib.axis_2">
    <g id="ytick_1">
     <g id="line2d_6">
      <defs>
       <path d="M 0 0 
L -3.5 0 
" id="mfd2dcae104" style="stroke:#000000;stroke-width:0.8;"/>
      </defs>
      <g>
       <use style="stroke:#000000;stroke-width:0.8;" x="65.167188" xlink:href="#mfd2dcae104" y="663.171948"/>
      </g>
     </g>
     <g id="text_7">
      <!-- −60 -->
      <g transform="translate(28.620625 668.490854)scale(0.14 -0.14)">
       <defs>
        <path d="M 10.59375 35.5 
L 73.1875 35.5 
L 73.1875 27.203125 
L 10.59375 27.203125 
z
" id="DejaVuSans-8722"/>
        <path d="M 33.015625 40.375 
Q 26.375 40.375 22.484375 35.828125 
Q 18.609375 31.296875 18.609375 23.390625 
Q 18.609375 15.53125 22.484375 10.953125 
Q 26.375 6.390625 33.015625 6.390625 
Q 39.65625 6.390625 43.53125 10.953125 
Q 47.40625 15.53125 47.40625 23.390625 
Q 47.40625 31.296875 43.53125 35.828125 
Q 39.65625 40.375 33.015625 40.375 
z
M 52.59375 71.296875 
L 52.59375 62.3125 
Q 48.875 64.0625 45.09375 64.984375 
Q 41.3125 65.921875 37.59375 65.921875 
Q 27.828125 65.921875 22.671875 59.328125 
Q 17.53125 52.734375 16.796875 39.40625 
Q 19.671875 43.65625 24.015625 45.921875 
Q 28.375 48.1875 33.59375 48.1875 
Q 44.578125 48.1875 50.953125 41.515625 
Q 57.328125 34.859375 57.328125 23.390625 
Q 57.328125 12.15625 50.6875 5.359375 
Q 44.046875 -1.421875 33.015625 -1.421875 
Q 20.359375 -1.421875 13.671875 8.265625 
Q 6.984375 17.96875 6.984375 36.375 
Q 6.984375 53.65625 15.1875 63.9375 
Q 23.390625 74.21875 37.203125 74.21875 
Q 40.921875 74.21875 44.703125 73.484375 
Q 48.484375 72.75 52.59375 71.296875 
z
" id="DejaVuSans-54"/>
        <path d="M 31.78125 66.40625 
Q 24.171875 66.40625 20.328125 58.90625 
Q 16.5 51.421875 16.5 36.375 
Q 16.5 21.390625 20.328125 13.890625 
Q 24.171875 6.390625 31.78125 6.390625 
Q 39.453125 6.390625 43.28125 13.890625 
Q 47.125 21.390625 47.125 36.375 
Q 47.125 51.421875 43.28125 58.90625 
Q 39.453125 66.40625 31.78125 66.40625 
z
M 31.78125 74.21875 
Q 44.046875 74.21875 50.515625 64.515625 
Q 56.984375 54.828125 56.984375 36.375 
Q 56.984375 17.96875 50.515625 8.265625 
Q 44.046875 -1.421875 31.78125 -1.421875 
Q 19.53125 -1.421875 13.0625 8.265625 
Q 6.59375 17.96875 6.59375 36.375 
Q 6.59375 54.828125 13.0625 64.515625 
Q 19.53125 74.21875 31.78125 74.21875 
z
" id="DejaVuSans-48"/>
       </defs>
       <use xlink:href="#DejaVuSans-8722"/>
       <use x="83.789062" xlink:href="#DejaVuSans-54"/>
       <use x="147.412109" xlink:href="#DejaVuSans-48"/>
      </g>
     </g>
    </g>
    <g id="ytick_2">
     <g id="line2d_7">
      <g>
       <use style="stroke:#000000;stroke-width:0.8;" x="65.167188" xlink:href="#mfd2dcae104" y="544.544042"/>
      </g>
     </g>
     <g id="text_8">
      <!-- −40 -->
      <g transform="translate(28.620625 549.862949)scale(0.14 -0.14)">
       <use xlink:href="#DejaVuSans-8722"/>
       <use x="83.789062" xlink:href="#DejaVuSans-52"/>
       <use x="147.412109" xlink:href="#DejaVuSans-48"/>
      </g>
     </g>
    </g>
    <g id="ytick_3">
     <g id="line2d_8">
      <g>
       <use style="stroke:#000000;stroke-width:0.8;" x="65.167188" xlink:href="#mfd2dcae104" y="425.916137"/>
      </g>
     </g>
     <g id="text_9">
      <!-- −20 -->
      <g transform="translate(28.620625 431.235044)scale(0.14 -0.14)">
       <use xlink:href="#DejaVuSans-8722"/>
       <use x="83.789062" xlink:href="#DejaVuSans-50"/>
       <use x="147.412109" xlink:href="#DejaVuSans-48"/>
      </g>
     </g>
    </g>
    <g id="ytick_4">
     <g id="line2d_9">
      <g>
       <use style="stroke:#000000;stroke-width:0.8;" x="65.167188" xlink:href="#mfd2dcae104" y="307.288232"/>
      </g>
     </g>
     <g id="text_10">
      <!-- 0 -->
      <g transform="translate(49.259688 312.607138)scale(0.14 -0.14)">
       <use xlink:href="#DejaVuSans-48"/>
      </g>
     </g>
    </g>
    <g id="ytick_5">
     <g id="line2d_10">
      <g>
       <use style="stroke:#000000;stroke-width:0.8;" x="65.167188" xlink:href="#mfd2dcae104" y="188.660327"/>
      </g>
     </g>
     <g id="text_11">
      <!-- 20 -->
      <g transform="translate(40.352188 193.979233)scale(0.14 -0.14)">
       <use xlink:href="#DejaVuSans-50"/>
       <use x="63.623047" xlink:href="#DejaVuSans-48"/>
      </g>
     </g>
    </g>
    <g id="ytick_6">
     <g id="line2d_11">
      <g>
       <use style="stroke:#000000;stroke-width:0.8;" x="65.167188" xlink:href="#mfd2dcae104" y="70.032422"/>
      </g>
     </g>
     <g id="text_12">
      <!-- 40 -->
      <g transform="translate(40.352188 75.351328)scale(0.14 -0.14)">
       <use xlink:href="#DejaVuSans-52"/>
       <use x="63.623047" xlink:href="#DejaVuSans-48"/>
      </g>
     </g>
    </g>
    <g id="text_13">
     <!-- Frequency Offset [kHz] -->
     <g transform="translate(20.877188 460.712344)rotate(-90)scale(0.18 -0.18)">
      <defs>
       <path d="M 9.8125 72.90625 
L 51.703125 72.90625 
L 51.703125 64.59375 
L 19.671875 64.59375 
L 19.671875 43.109375 
L 48.578125 43.109375 
L 48.578125 34.8125 
L 19.671875 34.8125 
L 19.671875 0 
L 9.8125 0 
z
" id="DejaVuSans-70"/>
       <path d="M 41.109375 46.296875 
Q 39.59375 47.171875 37.8125 47.578125 
Q 36.03125 48 33.890625 48 
Q 26.265625 48 22.1875 43.046875 
Q 18.109375 38.09375 18.109375 28.8125 
L 18.109375 0 
L 9.078125 0 
L 9.078125 54.6875 
L 18.109375 54.6875 
L 18.109375 46.1875 
Q 20.953125 51.171875 25.484375 53.578125 
Q 30.03125 56 36.53125 56 
Q 37.453125 56 38.578125 55.875 
Q 39.703125 55.765625 41.0625 55.515625 
z
" id="DejaVuSans-114"/>
       <path d="M 14.796875 27.296875 
Q 14.796875 17.390625 18.875 11.75 
Q 22.953125 6.109375 30.078125 6.109375 
Q 37.203125 6.109375 41.296875 11.75 
Q 45.40625 17.390625 45.40625 27.296875 
Q 45.40625 37.203125 41.296875 42.84375 
Q 37.203125 48.484375 30.078125 48.484375 
Q 22.953125 48.484375 18.875 42.84375 
Q 14.796875 37.203125 14.796875 27.296875 
z
M 45.40625 8.203125 
Q 42.578125 3.328125 38.25 0.953125 
Q 33.9375 -1.421875 27.875 -1.421875 
Q 17.96875 -1.421875 11.734375 6.484375 
Q 5.515625 14.40625 5.515625 27.296875 
Q 5.515625 40.1875 11.734375 48.09375 
Q 17.96875 56 27.875 56 
Q 33.9375 56 38.25 53.625 
Q 42.578125 51.265625 45.40625 46.390625 
L 45.40625 54.6875 
L 54.390625 54.6875 
L 54.390625 -20.796875 
L 45.40625 -20.796875 
z
" id="DejaVuSans-113"/>
       <path d="M 8.5 21.578125 
L 8.5 54.6875 
L 17.484375 54.6875 
L 17.484375 21.921875 
Q 17.484375 14.15625 20.5 10.265625 
Q 23.53125 6.390625 29.59375 6.390625 
Q 36.859375 6.390625 41.078125 11.03125 
Q 45.3125 15.671875 45.3125 23.6875 
L 45.3125 54.6875 
L 54.296875 54.6875 
L 54.296875 0 
L 45.3125 0 
L 45.3125 8.40625 
Q 42.046875 3.421875 37.71875 1 
Q 33.40625 -1.421875 27.6875 -1.421875 
Q 18.265625 -1.421875 13.375 4.4375 
Q 8.5 10.296875 8.5 21.578125 
z
M 31.109375 56 
z
" id="DejaVuSans-117"/>
       <path d="M 54.890625 33.015625 
L 54.890625 0 
L 45.90625 0 
L 45.90625 32.71875 
Q 45.90625 40.484375 42.875 44.328125 
Q 39.84375 48.1875 33.796875 48.1875 
Q 26.515625 48.1875 22.3125 43.546875 
Q 18.109375 38.921875 18.109375 30.90625 
L 18.109375 0 
L 9.078125 0 
L 9.078125 54.6875 
L 18.109375 54.6875 
L 18.109375 46.1875 
Q 21.34375 51.125 25.703125 53.5625 
Q 30.078125 56 35.796875 56 
Q 45.21875 56 50.046875 50.171875 
Q 54.890625 44.34375 54.890625 33.015625 
z
" id="DejaVuSans-110"/>
       <path d="M 48.78125 52.59375 
L 48.78125 44.1875 
Q 44.96875 46.296875 41.140625 47.34375 
Q 37.3125 48.390625 33.40625 48.390625 
Q 24.65625 48.390625 19.8125 42.84375 
Q 14.984375 37.3125 14.984375 27.296875 
Q 14.984375 17.28125 19.8125 11.734375 
Q 24.65625 6.203125 33.40625 6.203125 
Q 37.3125 6.203125 41.140625 7.25 
Q 44.96875 8.296875 48.78125 10.40625 
L 48.78125 2.09375 
Q 45.015625 0.34375 40.984375 -0.53125 
Q 36.96875 -1.421875 32.421875 -1.421875 
Q 20.0625 -1.421875 12.78125 6.34375 
Q 5.515625 14.109375 5.515625 27.296875 
Q 5.515625 40.671875 12.859375 48.328125 
Q 20.21875 56 33.015625 56 
Q 37.15625 56 41.109375 55.140625 
Q 45.0625 54.296875 48.78125 52.59375 
z
" id="DejaVuSans-99"/>
       <path d="M 32.171875 -5.078125 
Q 28.375 -14.84375 24.75 -17.8125 
Q 21.140625 -20.796875 15.09375 -20.796875 
L 7.90625 -20.796875 
L 7.90625 -13.28125 
L 13.1875 -13.28125 
Q 16.890625 -13.28125 18.9375 -11.515625 
Q 21 -9.765625 23.484375 -3.21875 
L 25.09375 0.875 
L 2.984375 54.6875 
L 12.5 54.6875 
L 29.59375 11.921875 
L 46.6875 54.6875 
L 56.203125 54.6875 
z
" id="DejaVuSans-121"/>
       <path d="M 39.40625 66.21875 
Q 28.65625 66.21875 22.328125 58.203125 
Q 16.015625 50.203125 16.015625 36.375 
Q 16.015625 22.609375 22.328125 14.59375 
Q 28.65625 6.59375 39.40625 6.59375 
Q 50.140625 6.59375 56.421875 14.59375 
Q 62.703125 22.609375 62.703125 36.375 
Q 62.703125 50.203125 56.421875 58.203125 
Q 50.140625 66.21875 39.40625 66.21875 
z
M 39.40625 74.21875 
Q 54.734375 74.21875 63.90625 63.9375 
Q 73.09375 53.65625 73.09375 36.375 
Q 73.09375 19.140625 63.90625 8.859375 
Q 54.734375 -1.421875 39.40625 -1.421875 
Q 24.03125 -1.421875 14.8125 8.828125 
Q 5.609375 19.09375 5.609375 36.375 
Q 5.609375 53.65625 14.8125 63.9375 
Q 24.03125 74.21875 39.40625 74.21875 
z
" id="DejaVuSans-79"/>
       <path d="M 37.109375 75.984375 
L 37.109375 68.5 
L 28.515625 68.5 
Q 23.6875 68.5 21.796875 66.546875 
Q 19.921875 64.59375 19.921875 59.515625 
L 19.921875 54.6875 
L 34.71875 54.6875 
L 34.71875 47.703125 
L 19.921875 47.703125 
L 19.921875 0 
L 10.890625 0 
L 10.890625 47.703125 
L 2.296875 47.703125 
L 2.296875 54.6875 
L 10.890625 54.6875 
L 10.890625 58.5 
Q 10.890625 67.625 15.140625 71.796875 
Q 19.390625 75.984375 28.609375 75.984375 
z
" id="DejaVuSans-102"/>
       <path d="M 18.3125 70.21875 
L 18.3125 54.6875 
L 36.8125 54.6875 
L 36.8125 47.703125 
L 18.3125 47.703125 
L 18.3125 18.015625 
Q 18.3125 11.328125 20.140625 9.421875 
Q 21.96875 7.515625 27.59375 7.515625 
L 36.8125 7.515625 
L 36.8125 0 
L 27.59375 0 
Q 17.1875 0 13.234375 3.875 
Q 9.28125 7.765625 9.28125 18.015625 
L 9.28125 47.703125 
L 2.6875 47.703125 
L 2.6875 54.6875 
L 9.28125 54.6875 
L 9.28125 70.21875 
z
" id="DejaVuSans-116"/>
       <path d="M 9.078125 75.984375 
L 18.109375 75.984375 
L 18.109375 31.109375 
L 44.921875 54.6875 
L 56.390625 54.6875 
L 27.390625 29.109375 
L 57.625 0 
L 45.90625 0 
L 18.109375 26.703125 
L 18.109375 0 
L 9.078125 0 
z
" id="DejaVuSans-107"/>
       <path d="M 9.8125 72.90625 
L 19.671875 72.90625 
L 19.671875 43.015625 
L 55.515625 43.015625 
L 55.515625 72.90625 
L 65.375 72.90625 
L 65.375 0 
L 55.515625 0 
L 55.515625 34.71875 
L 19.671875 34.71875 
L 19.671875 0 
L 9.8125 0 
z
" id="DejaVuSans-72"/>
       <path d="M 5.515625 54.6875 
L 48.1875 54.6875 
L 48.1875 46.484375 
L 14.40625 7.171875 
L 48.1875 7.171875 
L 48.1875 0 
L 4.296875 0 
L 4.296875 8.203125 
L 38.09375 47.515625 
L 5.515625 47.515625 
z
" id="DejaVuSans-122"/>
      </defs>
      <use xlink:href="#DejaVuSans-70"/>
      <use x="50.269531" xlink:href="#DejaVuSans-114"/>
      <use x="89.132812" xlink:href="#DejaVuSans-101"/>
      <use x="150.65625" xlink:href="#DejaVuSans-113"/>
      <use x="214.132812" xlink:href="#DejaVuSans-117"/>
      <use x="277.511719" xlink:href="#DejaVuSans-101"/>
      <use x="339.035156" xlink:href="#DejaVuSans-110"/>
      <use x="402.414062" xlink:href="#DejaVuSans-99"/>
      <use x="457.394531" xlink:href="#DejaVuSans-121"/>
      <use x="516.574219" xlink:href="#DejaVuSans-32"/>
      <use x="548.361328" xlink:href="#DejaVuSans-79"/>
      <use x="627.072266" xlink:href="#DejaVuSans-102"/>
      <use x="662.277344" xlink:href="#DejaVuSans-102"/>
      <use x="697.482422" xlink:href="#DejaVuSans-115"/>
      <use x="749.582031" xlink:href="#DejaVuSans-101"/>
      <use x="811.105469" xlink:href="#DejaVuSans-116"/>
      <use x="850.314453" xlink:href="#DejaVuSans-32"/>
      <use x="882.101562" xlink:href="#DejaVuSans-91"/>
      <use x="921.115234" xlink:href="#DejaVuSans-107"/>
      <use x="979.025391" xlink:href="#DejaVuSans-72"/>
      <use x="1054.220703" xlink:href="#DejaVuSans-122"/>
      <use x="1106.710938" xlink:href="#DejaVuSans-93"/>
     </g>
    </g>
   </g>
   <g id="line2d_12">
    <path clip-path="url(#pf943b3520a)" d="M 110.821733 81.567095 
L 112.649743 88.790533 
L 114.477753 97.150503 
L 116.305762 106.670357 
L 118.133772 117.374796 
L 119.961782 129.289068 
L 121.789792 142.437961 
L 123.617802 156.844547 
L 125.445812 172.528642 
L 128.187826 198.480274 
L 130.929841 227.35311 
L 133.671856 259.103482 
L 136.413871 293.602071 
L 139.155885 330.602435 
L 142.811905 383.112456 
L 153.779964 544.590966 
L 156.521979 579.562545 
L 158.349988 600.107692 
L 160.177998 617.900852 
L 162.006008 632.518016 
L 162.920013 638.517894 
L 163.834018 643.591454 
L 164.748023 647.704971 
L 165.662028 650.830701 
L 166.576033 652.947315 
L 167.490038 654.040251 
L 168.404043 654.101952 
L 169.318047 653.13199 
L 170.232052 651.137075 
L 171.146057 648.130943 
L 172.060062 644.134128 
L 172.974067 639.173633 
L 173.888072 633.282491 
L 174.802077 626.499254 
L 176.630087 610.434711 
L 178.458097 591.375216 
L 180.286106 569.762519 
L 183.028121 533.57765 
L 186.684141 480.730862 
L 195.82419 344.975531 
L 199.48021 295.030176 
L 202.222224 260.426329 
L 204.964239 228.563345 
L 207.706254 199.574578 
L 210.448269 173.506565 
L 213.190283 150.345716 
L 215.018293 136.495503 
L 216.846303 123.893128 
L 218.674313 112.514592 
L 220.502323 102.334766 
L 222.330332 93.328532 
L 224.158342 85.471693 
L 225.986352 78.7417 
L 227.814362 73.118212 
L 229.642372 68.583537 
L 230.556377 66.719782 
L 231.470382 65.122959 
L 232.384387 63.791735 
L 233.298391 62.72499 
L 234.212396 61.921818 
L 235.126401 61.381536 
L 236.040406 61.103682 
L 236.954411 61.088019 
L 237.868416 61.334533 
L 238.782421 61.843435 
L 239.696426 62.615159 
L 240.610431 63.650365 
L 241.524436 64.949929 
L 242.438441 66.514946 
L 243.352445 68.346726 
L 245.180455 72.816841 
L 247.008465 78.374804 
L 248.836475 85.038136 
L 250.664485 92.827032 
L 252.492495 101.763924 
L 254.320504 111.872927 
L 256.148514 123.179129 
L 257.976524 135.707688 
L 259.804534 149.482707 
L 261.632544 164.525844 
L 264.374559 189.504926 
L 267.116573 217.405463 
L 269.858588 248.206193 
L 272.600603 281.809612 
L 275.342617 318.012083 
L 278.998637 369.70592 
L 284.482667 451.657769 
L 289.052691 519.192489 
L 291.794706 556.723518 
L 293.622716 579.562545 
L 295.450726 600.107692 
L 297.278735 617.900852 
L 299.106745 632.518016 
L 300.02075 638.517894 
L 300.934755 643.591454 
L 301.84876 647.704971 
L 302.762765 650.830701 
L 303.67677 652.947315 
L 304.590775 654.040251 
L 305.50478 654.101952 
L 306.418785 653.13199 
L 307.332789 651.137075 
L 308.246794 648.130943 
L 309.160799 644.134128 
L 310.074804 639.173633 
L 310.988809 633.282491 
L 311.902814 626.499254 
L 313.730824 610.434711 
L 315.558834 591.375216 
L 317.386844 569.762519 
L 320.128858 533.57765 
L 323.784878 480.730862 
L 332.924927 344.975531 
L 336.580947 295.030176 
L 339.322961 260.426329 
L 342.064976 228.563345 
L 344.806991 199.574578 
L 347.549006 173.506565 
L 350.29102 150.345716 
L 352.11903 136.495503 
L 353.94704 123.893128 
L 355.77505 112.514592 
L 357.60306 102.334766 
L 359.43107 93.328532 
L 361.259079 85.471693 
L 363.087089 78.7417 
L 364.915099 73.118212 
L 366.743109 68.583537 
L 367.657114 66.719782 
L 368.571119 65.122959 
L 369.485124 63.791735 
L 370.399129 62.72499 
L 371.313133 61.921818 
L 372.227138 61.381536 
L 373.141143 61.103682 
L 374.055148 61.088019 
L 374.969153 61.334533 
L 375.883158 61.843435 
L 376.797163 62.615159 
L 377.711168 63.650365 
L 378.625173 64.949929 
L 379.539178 66.514946 
L 380.453183 68.346726 
L 382.281192 72.816841 
L 384.109202 78.374804 
L 385.937212 85.038136 
L 387.765222 92.827032 
L 389.593232 101.763924 
L 391.421242 111.872927 
L 393.249251 123.179129 
L 395.077261 135.707688 
L 396.905271 149.482707 
L 398.733281 164.525844 
L 401.475296 189.504926 
L 404.21731 217.405463 
L 406.959325 248.206193 
L 409.70134 281.809612 
L 412.443355 318.012083 
L 416.099374 369.70592 
L 421.583404 451.657769 
L 426.153428 519.192489 
L 428.895443 556.723518 
L 430.723453 579.562545 
L 432.551463 600.107692 
L 434.379473 617.900852 
L 436.207482 632.518016 
L 437.121487 638.517894 
L 438.035492 643.591454 
L 438.949497 647.704971 
L 439.863502 650.830701 
L 440.777507 652.947315 
L 441.691512 654.040251 
L 442.605517 654.101952 
L 443.519522 653.13199 
L 444.433527 651.137075 
L 445.347531 648.130943 
L 446.261536 644.134128 
L 447.175541 639.173633 
L 448.089546 633.282491 
L 449.003551 626.499254 
L 450.831561 610.434711 
L 452.659571 591.375216 
L 454.487581 569.762519 
L 457.229595 533.57765 
L 460.885615 480.730862 
L 470.025664 344.975531 
L 473.681684 295.030176 
L 476.423699 260.509497 
L 479.165713 228.639452 
L 481.907728 199.643411 
L 484.649743 173.568092 
L 487.391758 150.400028 
L 489.219767 136.545093 
L 491.047777 123.938083 
L 492.875787 112.555005 
L 494.703797 102.370731 
L 496.531807 93.360141 
L 498.359816 85.499036 
L 500.187826 78.764856 
L 502.015836 73.137254 
L 503.843846 68.598525 
L 504.757851 66.732763 
L 505.671856 65.133943 
L 506.585861 63.800732 
L 507.499866 62.732006 
L 508.413871 61.92686 
L 509.327875 61.384609 
L 510.24188 61.104788 
L 511.155885 61.087159 
L 512.06989 61.331706 
L 512.983895 61.838638 
L 513.8979 62.60839 
L 514.811905 63.641616 
L 515.72591 64.939194 
L 516.639915 66.502215 
L 517.55392 68.331989 
L 519.38193 72.798054 
L 521.209939 78.351906 
L 523.037949 85.011058 
L 524.865959 92.795692 
L 526.693969 101.728234 
L 528.521979 111.832796 
L 530.349988 123.134461 
L 532.177998 135.65839 
L 534.006008 149.428692 
L 535.834018 164.467037 
L 538.576033 189.438837 
L 541.318047 217.332071 
L 544.060062 248.125634 
L 546.802077 281.722249 
L 549.544092 317.918586 
L 553.200111 369.605981 
L 558.684141 451.554367 
L 563.254165 519.094836 
L 565.99618 556.634149 
L 567.82419 579.480895 
L 569.6522 600.035515 
L 571.48021 617.839816 
L 573.308219 632.46962 
L 574.222224 638.476304 
L 575.136229 643.556944 
L 576.050234 647.677773 
L 576.964239 650.810999 
L 577.878244 652.935244 
L 578.792249 654.035895 
L 579.706254 654.105341 
L 580.620259 653.1431 
L 581.534264 651.15583 
L 582.448269 648.157213 
L 583.362273 644.167736 
L 584.276278 639.214352 
L 585.190283 633.330053 
L 586.104288 626.553351 
L 587.932298 610.500818 
L 589.760308 591.451749 
L 591.588318 569.847764 
L 594.330332 533.672651 
L 597.986352 480.832954 
L 607.126401 345.072756 
L 610.782421 295.119937 
L 613.524436 260.509497 
L 616.26645 228.639452 
L 619.008465 199.643411 
L 621.75048 173.568092 
L 624.492495 150.400028 
L 626.320504 136.545093 
L 628.148514 123.938083 
L 629.976524 112.555005 
L 631.804534 102.370731 
L 633.632544 93.360141 
L 635.460554 85.499036 
L 637.288563 78.764856 
L 639.116573 73.137254 
L 640.944583 68.598525 
L 641.858588 66.732763 
L 642.772593 65.133943 
L 643.686598 63.800732 
L 644.600603 62.732006 
L 645.514608 61.92686 
L 646.428613 61.384609 
L 647.342617 61.104788 
L 648.256622 61.087159 
L 649.170627 61.331706 
L 650.084632 61.838638 
L 650.998637 62.60839 
L 651.912642 63.641616 
L 652.826647 64.939194 
L 653.740652 66.502215 
L 654.654657 68.331989 
L 656.482667 72.798054 
L 658.310676 78.351906 
L 660.138686 85.011058 
L 661.966696 92.795692 
L 663.794706 101.728234 
L 665.622716 111.832796 
L 667.450726 123.134461 
L 669.278735 135.65839 
L 671.106745 149.428692 
L 672.934755 164.467037 
L 675.67677 189.438837 
L 678.418785 217.332071 
L 681.160799 248.125634 
L 683.902814 281.722249 
L 686.644829 317.918586 
L 690.300848 369.605981 
L 695.784878 451.554367 
L 700.354902 519.094836 
L 703.096917 556.634149 
L 704.924927 579.480895 
L 706.752937 600.035515 
L 708.580947 617.839816 
L 710.408957 632.46962 
L 711.322961 638.476304 
L 712.236966 643.556944 
L 713.150971 647.677773 
L 714.064976 650.810999 
L 714.978981 652.935244 
L 715.892986 654.035895 
L 716.806991 654.105341 
L 717.720996 653.1431 
L 718.635001 651.15583 
L 719.549006 648.157213 
L 720.463011 644.167736 
L 721.377016 639.214352 
L 722.29102 633.330053 
L 723.205025 626.553351 
L 725.033035 610.500818 
L 726.861045 591.451749 
L 728.689055 569.847764 
L 731.43107 533.672651 
L 735.087089 480.832954 
L 744.227138 345.072756 
L 747.883158 295.119937 
L 750.625173 260.509497 
L 753.367187 228.639452 
L 756.109202 199.643411 
L 758.851217 173.568092 
L 761.593232 150.400028 
L 763.421242 136.545093 
L 765.249251 123.938083 
L 767.077261 112.555005 
L 768.905271 102.370731 
L 770.733281 93.360141 
L 772.561291 85.499036 
L 774.389301 78.764856 
L 776.21731 73.137254 
L 778.04532 68.598525 
L 778.959325 66.732763 
L 779.87333 65.133943 
L 780.787335 63.800732 
L 781.70134 62.732006 
L 782.615345 61.92686 
L 783.52935 61.384609 
L 784.443355 61.104788 
L 785.357359 61.087159 
L 786.271364 61.331706 
L 787.185369 61.838638 
L 788.099374 62.60839 
L 789.013379 63.641616 
L 789.927384 64.939194 
L 790.841389 66.502215 
L 791.755394 68.331989 
L 793.583404 72.798054 
L 795.411414 78.351906 
L 797.239423 85.011058 
L 799.067433 92.795692 
L 800.895443 101.728234 
L 802.723453 111.832796 
L 804.551463 123.134461 
L 806.379473 135.65839 
L 808.207482 149.428692 
L 810.035492 164.467037 
L 812.777507 189.438837 
L 815.519522 217.332071 
L 818.261536 248.125634 
L 821.003551 281.722249 
L 823.745566 317.918586 
L 827.401586 369.605981 
L 832.885615 451.554367 
L 837.45564 519.094836 
L 840.197654 556.634149 
L 842.025664 579.480895 
L 843.853674 600.035515 
L 845.681684 617.839816 
L 847.509694 632.46962 
L 848.423699 638.476304 
L 849.337703 643.556944 
L 850.251708 647.677773 
L 851.165713 650.810999 
L 852.079718 652.935244 
L 852.993723 654.035895 
L 853.907728 654.105341 
L 854.821733 653.1431 
L 855.735738 651.15583 
L 856.649743 648.157213 
L 857.563748 644.167736 
L 858.477753 639.214352 
L 859.391758 633.330053 
L 860.305762 626.553351 
L 862.133772 610.500818 
L 863.961782 591.451749 
L 865.789792 569.847764 
L 868.531807 533.672651 
L 872.187826 480.832954 
L 881.327875 345.072756 
L 884.983895 295.119937 
L 887.72591 260.509497 
L 890.467925 228.639452 
L 893.209939 199.643411 
L 895.951954 173.568092 
L 898.693969 150.400028 
L 900.521979 136.545093 
L 902.349988 123.938083 
L 904.177998 112.555005 
L 906.006008 102.370731 
L 907.834018 93.360141 
L 909.662028 85.499036 
L 911.490038 78.764856 
L 913.318047 73.137254 
L 915.146057 68.598525 
L 916.060062 66.732763 
L 916.974067 65.133943 
L 917.888072 63.800732 
L 918.802077 62.732006 
L 919.716082 61.92686 
L 920.630087 61.384609 
L 921.544092 61.104788 
L 922.458097 61.087159 
L 923.372102 61.331706 
L 924.286106 61.838638 
L 925.200111 62.60839 
L 926.114116 63.641616 
L 927.028121 64.939194 
L 927.942126 66.502215 
L 928.856131 68.331989 
L 930.684141 72.798054 
L 932.512151 78.351906 
L 934.34016 85.011058 
L 936.16817 92.795692 
L 937.99618 101.728234 
L 939.82419 111.832796 
L 941.6522 123.134461 
L 943.48021 135.65839 
L 945.308219 149.428692 
L 947.136229 164.467037 
L 949.878244 189.438837 
L 952.620259 217.332071 
L 955.362273 248.125634 
L 958.104288 281.722249 
L 960.846303 317.918586 
L 964.502323 369.605981 
L 969.986352 451.554367 
L 974.556377 519.094836 
L 977.298391 556.634149 
L 979.126401 579.480895 
L 980.954411 600.035515 
L 982.782421 617.839816 
L 984.610431 632.46962 
L 985.524436 638.476304 
L 986.438441 643.556944 
L 987.352445 647.677773 
L 988.26645 650.810999 
L 989.180455 652.935244 
L 990.09446 654.035895 
L 991.008465 654.105341 
L 991.92247 653.1431 
L 992.836475 651.15583 
L 993.75048 648.157213 
L 994.664485 644.167736 
L 995.57849 639.214352 
L 996.492495 633.330053 
L 997.4065 626.553351 
L 999.234509 610.500818 
L 1001.062519 591.451749 
L 1002.890529 569.847764 
L 1005.632544 533.672651 
L 1009.288563 480.832954 
L 1018.428613 345.072756 
L 1022.084632 295.119937 
L 1023.912642 271.751507 
L 1023.912642 271.751507 
" style="fill:none;stroke:#1f77b4;stroke-linecap:square;stroke-width:1.5;"/>
   </g>
   <g id="patch_3">
    <path d="M 65.167188 683.75625 
L 65.167188 31.43625 
" style="fill:none;stroke:#000000;stroke-linecap:square;stroke-linejoin:miter;stroke-width:0.8;"/>
   </g>
   <g id="patch_4">
    <path d="M 1069.567188 683.75625 
L 1069.567188 31.43625 
" style="fill:none;stroke:#000000;stroke-linecap:square;stroke-linejoin:miter;stroke-width:0.8;"/>
   </g>
   <g id="patch_5">
    <path d="M 65.167187 683.75625 
L 1069.567187 683.75625 
" style="fill:none;stroke:#000000;stroke-linecap:square;stroke-linejoin:miter;stroke-width:0.8;"/>
   </g>
   <g id="patch_6">
    <path d="M 65.167187 31.43625 
L 1069.567187 31.43625 
" style="fill:none;stroke:#000000;stroke-linecap:square;stroke-linejoin:miter;stroke-width:0.8;"/>
   </g>
   <g id="text_14">
    <!-- SQUID-Modulated Resonance Frequency -->
    <g transform="translate(326.157812 25.43625)scale(0.24 -0.24)">
     <defs>
      <path d="M 53.515625 70.515625 
L 53.515625 60.890625 
Q 47.90625 63.578125 42.921875 64.890625 
Q 37.9375 66.21875 33.296875 66.21875 
Q 25.25 66.21875 20.875 63.09375 
Q 16.5 59.96875 16.5 54.203125 
Q 16.5 49.359375 19.40625 46.890625 
Q 22.3125 44.4375 30.421875 42.921875 
L 36.375 41.703125 
Q 47.40625 39.59375 52.65625 34.296875 
Q 57.90625 29 57.90625 20.125 
Q 57.90625 9.515625 50.796875 4.046875 
Q 43.703125 -1.421875 29.984375 -1.421875 
Q 24.8125 -1.421875 18.96875 -0.25 
Q 13.140625 0.921875 6.890625 3.21875 
L 6.890625 13.375 
Q 12.890625 10.015625 18.65625 8.296875 
Q 24.421875 6.59375 29.984375 6.59375 
Q 38.421875 6.59375 43.015625 9.90625 
Q 47.609375 13.234375 47.609375 19.390625 
Q 47.609375 24.75 44.3125 27.78125 
Q 41.015625 30.8125 33.5 32.328125 
L 27.484375 33.5 
Q 16.453125 35.6875 11.515625 40.375 
Q 6.59375 45.0625 6.59375 53.421875 
Q 6.59375 63.09375 13.40625 68.65625 
Q 20.21875 74.21875 32.171875 74.21875 
Q 37.3125 74.21875 42.625 73.28125 
Q 47.953125 72.359375 53.515625 70.515625 
z
" id="DejaVuSans-83"/>
      <path d="M 39.40625 66.21875 
Q 28.65625 66.21875 22.328125 58.203125 
Q 16.015625 50.203125 16.015625 36.375 
Q 16.015625 22.609375 22.328125 14.59375 
Q 28.65625 6.59375 39.40625 6.59375 
Q 50.140625 6.59375 56.421875 14.59375 
Q 62.703125 22.609375 62.703125 36.375 
Q 62.703125 50.203125 56.421875 58.203125 
Q 50.140625 66.21875 39.40625 66.21875 
z
M 53.21875 1.3125 
L 66.21875 -12.890625 
L 54.296875 -12.890625 
L 43.5 -1.21875 
Q 41.890625 -1.3125 41.03125 -1.359375 
Q 40.1875 -1.421875 39.40625 -1.421875 
Q 24.03125 -1.421875 14.8125 8.859375 
Q 5.609375 19.140625 5.609375 36.375 
Q 5.609375 53.65625 14.8125 63.9375 
Q 24.03125 74.21875 39.40625 74.21875 
Q 54.734375 74.21875 63.90625 63.9375 
Q 73.09375 53.65625 73.09375 36.375 
Q 73.09375 23.6875 67.984375 14.640625 
Q 62.890625 5.609375 53.21875 1.3125 
z
" id="DejaVuSans-81"/>
      <path d="M 8.6875 72.90625 
L 18.609375 72.90625 
L 18.609375 28.609375 
Q 18.609375 16.890625 22.84375 11.734375 
Q 27.09375 6.59375 36.625 6.59375 
Q 46.09375 6.59375 50.34375 11.734375 
Q 54.59375 16.890625 54.59375 28.609375 
L 54.59375 72.90625 
L 64.5 72.90625 
L 64.5 27.390625 
Q 64.5 13.140625 57.4375 5.859375 
Q 50.390625 -1.421875 36.625 -1.421875 
Q 22.796875 -1.421875 15.734375 5.859375 
Q 8.6875 13.140625 8.6875 27.390625 
z
" id="DejaVuSans-85"/>
      <path d="M 9.8125 72.90625 
L 19.671875 72.90625 
L 19.671875 0 
L 9.8125 0 
z
" id="DejaVuSans-73"/>
      <path d="M 19.671875 64.796875 
L 19.671875 8.109375 
L 31.59375 8.109375 
Q 46.6875 8.109375 53.6875 14.9375 
Q 60.6875 21.78125 60.6875 36.53125 
Q 60.6875 51.171875 53.6875 57.984375 
Q 46.6875 64.796875 31.59375 64.796875 
z
M 9.8125 72.90625 
L 30.078125 72.90625 
Q 51.265625 72.90625 61.171875 64.09375 
Q 71.09375 55.28125 71.09375 36.53125 
Q 71.09375 17.671875 61.125 8.828125 
Q 51.171875 0 30.078125 0 
L 9.8125 0 
z
" id="DejaVuSans-68"/>
      <path d="M 4.890625 31.390625 
L 31.203125 31.390625 
L 31.203125 23.390625 
L 4.890625 23.390625 
z
" id="DejaVuSans-45"/>
      <path d="M 9.8125 72.90625 
L 24.515625 72.90625 
L 43.109375 23.296875 
L 61.8125 72.90625 
L 76.515625 72.90625 
L 76.515625 0 
L 66.890625 0 
L 66.890625 64.015625 
L 48.09375 14.015625 
L 38.1875 14.015625 
L 19.390625 64.015625 
L 19.390625 0 
L 9.8125 0 
z
" id="DejaVuSans-77"/>
      <path d="M 30.609375 48.390625 
Q 23.390625 48.390625 19.1875 42.75 
Q 14.984375 37.109375 14.984375 27.296875 
Q 14.984375 17.484375 19.15625 11.84375 
Q 23.34375 6.203125 30.609375 6.203125 
Q 37.796875 6.203125 41.984375 11.859375 
Q 46.1875 17.53125 46.1875 27.296875 
Q 46.1875 37.015625 41.984375 42.703125 
Q 37.796875 48.390625 30.609375 48.390625 
z
M 30.609375 56 
Q 42.328125 56 49.015625 48.375 
Q 55.71875 40.765625 55.71875 27.296875 
Q 55.71875 13.875 49.015625 6.21875 
Q 42.328125 -1.421875 30.609375 -1.421875 
Q 18.84375 -1.421875 12.171875 6.21875 
Q 5.515625 13.875 5.515625 27.296875 
Q 5.515625 40.765625 12.171875 48.375 
Q 18.84375 56 30.609375 56 
z
" id="DejaVuSans-111"/>
      <path d="M 45.40625 46.390625 
L 45.40625 75.984375 
L 54.390625 75.984375 
L 54.390625 0 
L 45.40625 0 
L 45.40625 8.203125 
Q 42.578125 3.328125 38.25 0.953125 
Q 33.9375 -1.421875 27.875 -1.421875 
Q 17.96875 -1.421875 11.734375 6.484375 
Q 5.515625 14.40625 5.515625 27.296875 
Q 5.515625 40.1875 11.734375 48.09375 
Q 17.96875 56 27.875 56 
Q 33.9375 56 38.25 53.625 
Q 42.578125 51.265625 45.40625 46.390625 
z
M 14.796875 27.296875 
Q 14.796875 17.390625 18.875 11.75 
Q 22.953125 6.109375 30.078125 6.109375 
Q 37.203125 6.109375 41.296875 11.75 
Q 45.40625 17.390625 45.40625 27.296875 
Q 45.40625 37.203125 41.296875 42.84375 
Q 37.203125 48.484375 30.078125 48.484375 
Q 22.953125 48.484375 18.875 42.84375 
Q 14.796875 37.203125 14.796875 27.296875 
z
" id="DejaVuSans-100"/>
      <path d="M 9.421875 75.984375 
L 18.40625 75.984375 
L 18.40625 0 
L 9.421875 0 
z
" id="DejaVuSans-108"/>
      <path d="M 34.28125 27.484375 
Q 23.390625 27.484375 19.1875 25 
Q 14.984375 22.515625 14.984375 16.5 
Q 14.984375 11.71875 18.140625 8.90625 
Q 21.296875 6.109375 26.703125 6.109375 
Q 34.1875 6.109375 38.703125 11.40625 
Q 43.21875 16.703125 43.21875 25.484375 
L 43.21875 27.484375 
z
M 52.203125 31.203125 
L 52.203125 0 
L 43.21875 0 
L 43.21875 8.296875 
Q 40.140625 3.328125 35.546875 0.953125 
Q 30.953125 -1.421875 24.3125 -1.421875 
Q 15.921875 -1.421875 10.953125 3.296875 
Q 6 8.015625 6 15.921875 
Q 6 25.140625 12.171875 29.828125 
Q 18.359375 34.515625 30.609375 34.515625 
L 43.21875 34.515625 
L 43.21875 35.40625 
Q 43.21875 41.609375 39.140625 45 
Q 35.0625 48.390625 27.6875 48.390625 
Q 23 48.390625 18.546875 47.265625 
Q 14.109375 46.140625 10.015625 43.890625 
L 10.015625 52.203125 
Q 14.9375 54.109375 19.578125 55.046875 
Q 24.21875 56 28.609375 56 
Q 40.484375 56 46.34375 49.84375 
Q 52.203125 43.703125 52.203125 31.203125 
z
" id="DejaVuSans-97"/>
      <path d="M 44.390625 34.1875 
Q 47.5625 33.109375 50.5625 29.59375 
Q 53.5625 26.078125 56.59375 19.921875 
L 66.609375 0 
L 56 0 
L 46.6875 18.703125 
Q 43.0625 26.03125 39.671875 28.421875 
Q 36.28125 30.8125 30.421875 30.8125 
L 19.671875 30.8125 
L 19.671875 0 
L 9.8125 0 
L 9.8125 72.90625 
L 32.078125 72.90625 
Q 44.578125 72.90625 50.734375 67.671875 
Q 56.890625 62.453125 56.890625 51.90625 
Q 56.890625 45.015625 53.6875 40.46875 
Q 50.484375 35.9375 44.390625 34.1875 
z
M 19.671875 64.796875 
L 19.671875 38.921875 
L 32.078125 38.921875 
Q 39.203125 38.921875 42.84375 42.21875 
Q 46.484375 45.515625 46.484375 51.90625 
Q 46.484375 58.296875 42.84375 61.546875 
Q 39.203125 64.796875 32.078125 64.796875 
z
" id="DejaVuSans-82"/>
     </defs>
     <use xlink:href="#DejaVuSans-83"/>
     <use x="63.476562" xlink:href="#DejaVuSans-81"/>
     <use x="142.1875" xlink:href="#DejaVuSans-85"/>
     <use x="215.380859" xlink:href="#DejaVuSans-73"/>
     <use x="244.873047" xlink:href="#DejaVuSans-68"/>
     <use x="321.875" xlink:href="#DejaVuSans-45"/>
     <use x="357.958984" xlink:href="#DejaVuSans-77"/>
     <use x="444.238281" xlink:href="#DejaVuSans-111"/>
     <use x="505.419922" xlink:href="#DejaVuSans-100"/>
     <use x="568.896484" xlink:href="#DejaVuSans-117"/>
     <use x="632.275391" xlink:href="#DejaVuSans-108"/>
     <use x="660.058594" xlink:href="#DejaVuSans-97"/>
     <use x="721.337891" xlink:href="#DejaVuSans-116"/>
     <use x="760.546875" xlink:href="#DejaVuSans-101"/>
     <use x="822.070312" xlink:href="#DejaVuSans-100"/>
     <use x="885.546875" xlink:href="#DejaVuSans-32"/>
     <use x="917.333984" xlink:href="#DejaVuSans-82"/>
     <use x="982.316406" xlink:href="#DejaVuSans-101"/>
     <use x="1043.839844" xlink:href="#DejaVuSans-115"/>
     <use x="1095.939453" xlink:href="#DejaVuSans-111"/>
     <use x="1157.121094" xlink:href="#DejaVuSans-110"/>
     <use x="1220.5" xlink:href="#DejaVuSans-97"/>
     <use x="1281.779297" xlink:href="#DejaVuSans-110"/>
     <use x="1345.158203" xlink:href="#DejaVuSans-99"/>
     <use x="1400.138672" xlink:href="#DejaVuSans-101"/>
     <use x="1461.662109" xlink:href="#DejaVuSans-32"/>
     <use x="1493.449219" xlink:href="#DejaVuSans-70"/>
     <use x="1543.71875" xlink:href="#DejaVuSans-114"/>
     <use x="1582.582031" xlink:href="#DejaVuSans-101"/>
     <use x="1644.105469" xlink:href="#DejaVuSans-113"/>
     <use x="1707.582031" xlink:href="#DejaVuSans-117"/>
     <use x="1770.960938" xlink:href="#DejaVuSans-101"/>
     <use x="1832.484375" xlink:href="#DejaVuSans-110"/>
     <use x="1895.863281" xlink:href="#DejaVuSans-99"/>
     <use x="1950.84375" xlink:href="#DejaVuSans-121"/>
    </g>
   </g>
  </g>
 </g>
 <defs>
  <clipPath id="pf943b3520a">
   <rect height="652.32" width="1004.4" x="65.167188" y="31.43625"/>
  </clipPath>
 </defs>
</svg>
