<?xml version="1.0" encoding="utf-8" standalone="no"?>
<!DOCTYPE svg PUBLIC "-//W3C//DTD SVG 1.1//EN"
  "http://www.w3.org/Graphics/SVG/1.1/DTD/svg11.dtd">
<!-- Created with matplotlib (https://matplotlib.org/) -->
<svg height="402.207187pt" version="1.1" viewBox="0 0 520.979375 402.207187" width="520.979375pt" xmlns="http://www.w3.org/2000/svg" xmlns:xlink="http://www.w3.org/1999/xlink">
 <metadata>
  <rdf:RDF xmlns:cc="http://creativecommons.org/ns#" xmlns:dc="http://purl.org/dc/elements/1.1/" xmlns:rdf="http://www.w3.org/1999/02/22-rdf-syntax-ns#">
   <cc:Work>
    <dc:type rdf:resource="http://purl.org/dc/dcmitype/StillImage"/>
    <dc:date>2022-07-29T17:55:28.512286</dc:date>
    <dc:format>image/svg+xml</dc:format>
    <dc:creator>
     <cc:Agent>
      <dc:title>Matplotlib v3.3.4, https://matplotlib.org/</dc:title>
     </cc:Agent>
    </dc:creator>
   </cc:Work>
  </rdf:RDF>
 </metadata>
 <defs>
  <style type="text/css">*{stroke-linecap:butt;stroke-linejoin:round;}</style>
 </defs>
 <g id="figure_1">
  <g id="patch_1">
   <path d="M 0 402.207187 
L 520.979375 402.207187 
L 520.979375 0 
L 0 0 
z
" style="fill:none;"/>
  </g>
  <g id="axes_1">
   <g id="patch_2">
    <path d="M 67.379375 175.131733 
L 513.779375 175.131733 
L 513.779375 26.877187 
L 67.379375 26.877187 
z
" style="fill:#ffffff;"/>
   </g>
   <g id="matplotlib.axis_1">
    <g id="xtick_1">
     <g id="line2d_1">
      <defs>
       <path d="M 0 0 
L 0 3.5 
" id="m01560fdf84" style="stroke:#000000;stroke-width:0.8;"/>
      </defs>
      <g>
       <use style="stroke:#000000;stroke-width:0.8;" x="87.670284" xlink:href="#m01560fdf84" y="175.131733"/>
      </g>
     </g>
    </g>
    <g id="xtick_2">
     <g id="line2d_2">
      <g>
       <use style="stroke:#000000;stroke-width:0.8;" x="138.408127" xlink:href="#m01560fdf84" y="175.131733"/>
      </g>
     </g>
    </g>
    <g id="xtick_3">
     <g id="line2d_3">
      <g>
       <use style="stroke:#000000;stroke-width:0.8;" x="189.14597" xlink:href="#m01560fdf84" y="175.131733"/>
      </g>
     </g>
    </g>
    <g id="xtick_4">
     <g id="line2d_4">
      <g>
       <use style="stroke:#000000;stroke-width:0.8;" x="239.883813" xlink:href="#m01560fdf84" y="175.131733"/>
      </g>
     </g>
    </g>
    <g id="xtick_5">
     <g id="line2d_5">
      <g>
       <use style="stroke:#000000;stroke-width:0.8;" x="290.621657" xlink:href="#m01560fdf84" y="175.131733"/>
      </g>
     </g>
    </g>
    <g id="xtick_6">
     <g id="line2d_6">
      <g>
       <use style="stroke:#000000;stroke-width:0.8;" x="341.3595" xlink:href="#m01560fdf84" y="175.131733"/>
      </g>
     </g>
    </g>
    <g id="xtick_7">
     <g id="line2d_7">
      <g>
       <use style="stroke:#000000;stroke-width:0.8;" x="392.097343" xlink:href="#m01560fdf84" y="175.131733"/>
      </g>
     </g>
    </g>
    <g id="xtick_8">
     <g id="line2d_8">
      <g>
       <use style="stroke:#000000;stroke-width:0.8;" x="442.835186" xlink:href="#m01560fdf84" y="175.131733"/>
      </g>
     </g>
    </g>
    <g id="xtick_9">
     <g id="line2d_9">
      <g>
       <use style="stroke:#000000;stroke-width:0.8;" x="493.573029" xlink:href="#m01560fdf84" y="175.131733"/>
      </g>
     </g>
    </g>
   </g>
   <g id="matplotlib.axis_2">
    <g id="ytick_1">
     <g id="line2d_10">
      <defs>
       <path d="M 0 0 
L -3.5 0 
" id="m66f3f01735" style="stroke:#000000;stroke-width:0.8;"/>
      </defs>
      <g>
       <use style="stroke:#000000;stroke-width:0.8;" x="67.379375" xlink:href="#m66f3f01735" y="154.833016"/>
      </g>
     </g>
     <g id="text_1">
      <!-- −40 -->
      <g transform="translate(30.832813 160.151922)scale(0.14 -0.14)">
       <defs>
        <path d="M 10.59375 35.5 
L 73.1875 35.5 
L 73.1875 27.203125 
L 10.59375 27.203125 
z
" id="DejaVuSans-8722"/>
        <path d="M 37.796875 64.3125 
L 12.890625 25.390625 
L 37.796875 25.390625 
z
M 35.203125 72.90625 
L 47.609375 72.90625 
L 47.609375 25.390625 
L 58.015625 25.390625 
L 58.015625 17.1875 
L 47.609375 17.1875 
L 47.609375 0 
L 37.796875 0 
L 37.796875 17.1875 
L 4.890625 17.1875 
L 4.890625 26.703125 
z
" id="DejaVuSans-52"/>
        <path d="M 31.78125 66.40625 
Q 24.171875 66.40625 20.328125 58.90625 
Q 16.5 51.421875 16.5 36.375 
Q 16.5 21.390625 20.328125 13.890625 
Q 24.171875 6.390625 31.78125 6.390625 
Q 39.453125 6.390625 43.28125 13.890625 
Q 47.125 21.390625 47.125 36.375 
Q 47.125 51.421875 43.28125 58.90625 
Q 39.453125 66.40625 31.78125 66.40625 
z
M 31.78125 74.21875 
Q 44.046875 74.21875 50.515625 64.515625 
Q 56.984375 54.828125 56.984375 36.375 
Q 56.984375 17.96875 50.515625 8.265625 
Q 44.046875 -1.421875 31.78125 -1.421875 
Q 19.53125 -1.421875 13.0625 8.265625 
Q 6.59375 17.96875 6.59375 36.375 
Q 6.59375 54.828125 13.0625 64.515625 
Q 19.53125 74.21875 31.78125 74.21875 
z
" id="DejaVuSans-48"/>
       </defs>
       <use xlink:href="#DejaVuSans-8722"/>
       <use x="83.789062" xlink:href="#DejaVuSans-52"/>
       <use x="147.412109" xlink:href="#DejaVuSans-48"/>
      </g>
     </g>
    </g>
    <g id="ytick_2">
     <g id="line2d_11">
      <g>
       <use style="stroke:#000000;stroke-width:0.8;" x="67.379375" xlink:href="#m66f3f01735" y="120.10934"/>
      </g>
     </g>
     <g id="text_2">
      <!-- −20 -->
      <g transform="translate(30.832813 125.428247)scale(0.14 -0.14)">
       <defs>
        <path d="M 19.1875 8.296875 
L 53.609375 8.296875 
L 53.609375 0 
L 7.328125 0 
L 7.328125 8.296875 
Q 12.9375 14.109375 22.625 23.890625 
Q 32.328125 33.6875 34.8125 36.53125 
Q 39.546875 41.84375 41.421875 45.53125 
Q 43.3125 49.21875 43.3125 52.78125 
Q 43.3125 58.59375 39.234375 62.25 
Q 35.15625 65.921875 28.609375 65.921875 
Q 23.96875 65.921875 18.8125 64.3125 
Q 13.671875 62.703125 7.8125 59.421875 
L 7.8125 69.390625 
Q 13.765625 71.78125 18.9375 73 
Q 24.125 74.21875 28.421875 74.21875 
Q 39.75 74.21875 46.484375 68.546875 
Q 53.21875 62.890625 53.21875 53.421875 
Q 53.21875 48.921875 51.53125 44.890625 
Q 49.859375 40.875 45.40625 35.40625 
Q 44.1875 33.984375 37.640625 27.21875 
Q 31.109375 20.453125 19.1875 8.296875 
z
" id="DejaVuSans-50"/>
       </defs>
       <use xlink:href="#DejaVuSans-8722"/>
       <use x="83.789062" xlink:href="#DejaVuSans-50"/>
       <use x="147.412109" xlink:href="#DejaVuSans-48"/>
      </g>
     </g>
    </g>
    <g id="ytick_3">
     <g id="line2d_12">
      <g>
       <use style="stroke:#000000;stroke-width:0.8;" x="67.379375" xlink:href="#m66f3f01735" y="85.385665"/>
      </g>
     </g>
     <g id="text_3">
      <!-- 0 -->
      <g transform="translate(51.471875 90.704572)scale(0.14 -0.14)">
       <use xlink:href="#DejaVuSans-48"/>
      </g>
     </g>
    </g>
    <g id="ytick_4">
     <g id="line2d_13">
      <g>
       <use style="stroke:#000000;stroke-width:0.8;" x="67.379375" xlink:href="#m66f3f01735" y="50.66199"/>
      </g>
     </g>
     <g id="text_4">
      <!-- 20 -->
      <g transform="translate(42.564375 55.980896)scale(0.14 -0.14)">
       <use xlink:href="#DejaVuSans-50"/>
       <use x="63.623047" xlink:href="#DejaVuSans-48"/>
      </g>
     </g>
    </g>
    <g id="text_5">
     <!-- Frequency Error [kHz] -->
     <g transform="translate(23.92125 177.128366)rotate(-90)scale(0.14 -0.14)">
      <defs>
       <path d="M 9.8125 72.90625 
L 51.703125 72.90625 
L 51.703125 64.59375 
L 19.671875 64.59375 
L 19.671875 43.109375 
L 48.578125 43.109375 
L 48.578125 34.8125 
L 19.671875 34.8125 
L 19.671875 0 
L 9.8125 0 
z
" id="DejaVuSans-70"/>
       <path d="M 41.109375 46.296875 
Q 39.59375 47.171875 37.8125 47.578125 
Q 36.03125 48 33.890625 48 
Q 26.265625 48 22.1875 43.046875 
Q 18.109375 38.09375 18.109375 28.8125 
L 18.109375 0 
L 9.078125 0 
L 9.078125 54.6875 
L 18.109375 54.6875 
L 18.109375 46.1875 
Q 20.953125 51.171875 25.484375 53.578125 
Q 30.03125 56 36.53125 56 
Q 37.453125 56 38.578125 55.875 
Q 39.703125 55.765625 41.0625 55.515625 
z
" id="DejaVuSans-114"/>
       <path d="M 56.203125 29.59375 
L 56.203125 25.203125 
L 14.890625 25.203125 
Q 15.484375 15.921875 20.484375 11.0625 
Q 25.484375 6.203125 34.421875 6.203125 
Q 39.59375 6.203125 44.453125 7.46875 
Q 49.3125 8.734375 54.109375 11.28125 
L 54.109375 2.78125 
Q 49.265625 0.734375 44.1875 -0.34375 
Q 39.109375 -1.421875 33.890625 -1.421875 
Q 20.796875 -1.421875 13.15625 6.1875 
Q 5.515625 13.8125 5.515625 26.8125 
Q 5.515625 40.234375 12.765625 48.109375 
Q 20.015625 56 32.328125 56 
Q 43.359375 56 49.78125 48.890625 
Q 56.203125 41.796875 56.203125 29.59375 
z
M 47.21875 32.234375 
Q 47.125 39.59375 43.09375 43.984375 
Q 39.0625 48.390625 32.421875 48.390625 
Q 24.90625 48.390625 20.390625 44.140625 
Q 15.875 39.890625 15.1875 32.171875 
z
" id="DejaVuSans-101"/>
       <path d="M 14.796875 27.296875 
Q 14.796875 17.390625 18.875 11.75 
Q 22.953125 6.109375 30.078125 6.109375 
Q 37.203125 6.109375 41.296875 11.75 
Q 45.40625 17.390625 45.40625 27.296875 
Q 45.40625 37.203125 41.296875 42.84375 
Q 37.203125 48.484375 30.078125 48.484375 
Q 22.953125 48.484375 18.875 42.84375 
Q 14.796875 37.203125 14.796875 27.296875 
z
M 45.40625 8.203125 
Q 42.578125 3.328125 38.25 0.953125 
Q 33.9375 -1.421875 27.875 -1.421875 
Q 17.96875 -1.421875 11.734375 6.484375 
Q 5.515625 14.40625 5.515625 27.296875 
Q 5.515625 40.1875 11.734375 48.09375 
Q 17.96875 56 27.875 56 
Q 33.9375 56 38.25 53.625 
Q 42.578125 51.265625 45.40625 46.390625 
L 45.40625 54.6875 
L 54.390625 54.6875 
L 54.390625 -20.796875 
L 45.40625 -20.796875 
z
" id="DejaVuSans-113"/>
       <path d="M 8.5 21.578125 
L 8.5 54.6875 
L 17.484375 54.6875 
L 17.484375 21.921875 
Q 17.484375 14.15625 20.5 10.265625 
Q 23.53125 6.390625 29.59375 6.390625 
Q 36.859375 6.390625 41.078125 11.03125 
Q 45.3125 15.671875 45.3125 23.6875 
L 45.3125 54.6875 
L 54.296875 54.6875 
L 54.296875 0 
L 45.3125 0 
L 45.3125 8.40625 
Q 42.046875 3.421875 37.71875 1 
Q 33.40625 -1.421875 27.6875 -1.421875 
Q 18.265625 -1.421875 13.375 4.4375 
Q 8.5 10.296875 8.5 21.578125 
z
M 31.109375 56 
z
" id="DejaVuSans-117"/>
       <path d="M 54.890625 33.015625 
L 54.890625 0 
L 45.90625 0 
L 45.90625 32.71875 
Q 45.90625 40.484375 42.875 44.328125 
Q 39.84375 48.1875 33.796875 48.1875 
Q 26.515625 48.1875 22.3125 43.546875 
Q 18.109375 38.921875 18.109375 30.90625 
L 18.109375 0 
L 9.078125 0 
L 9.078125 54.6875 
L 18.109375 54.6875 
L 18.109375 46.1875 
Q 21.34375 51.125 25.703125 53.5625 
Q 30.078125 56 35.796875 56 
Q 45.21875 56 50.046875 50.171875 
Q 54.890625 44.34375 54.890625 33.015625 
z
" id="DejaVuSans-110"/>
       <path d="M 48.78125 52.59375 
L 48.78125 44.1875 
Q 44.96875 46.296875 41.140625 47.34375 
Q 37.3125 48.390625 33.40625 48.390625 
Q 24.65625 48.390625 19.8125 42.84375 
Q 14.984375 37.3125 14.984375 27.296875 
Q 14.984375 17.28125 19.8125 11.734375 
Q 24.65625 6.203125 33.40625 6.203125 
Q 37.3125 6.203125 41.140625 7.25 
Q 44.96875 8.296875 48.78125 10.40625 
L 48.78125 2.09375 
Q 45.015625 0.34375 40.984375 -0.53125 
Q 36.96875 -1.421875 32.421875 -1.421875 
Q 20.0625 -1.421875 12.78125 6.34375 
Q 5.515625 14.109375 5.515625 27.296875 
Q 5.515625 40.671875 12.859375 48.328125 
Q 20.21875 56 33.015625 56 
Q 37.15625 56 41.109375 55.140625 
Q 45.0625 54.296875 48.78125 52.59375 
z
" id="DejaVuSans-99"/>
       <path d="M 32.171875 -5.078125 
Q 28.375 -14.84375 24.75 -17.8125 
Q 21.140625 -20.796875 15.09375 -20.796875 
L 7.90625 -20.796875 
L 7.90625 -13.28125 
L 13.1875 -13.28125 
Q 16.890625 -13.28125 18.9375 -11.515625 
Q 21 -9.765625 23.484375 -3.21875 
L 25.09375 0.875 
L 2.984375 54.6875 
L 12.5 54.6875 
L 29.59375 11.921875 
L 46.6875 54.6875 
L 56.203125 54.6875 
z
" id="DejaVuSans-121"/>
       <path id="DejaVuSans-32"/>
       <path d="M 9.8125 72.90625 
L 55.90625 72.90625 
L 55.90625 64.59375 
L 19.671875 64.59375 
L 19.671875 43.015625 
L 54.390625 43.015625 
L 54.390625 34.71875 
L 19.671875 34.71875 
L 19.671875 8.296875 
L 56.78125 8.296875 
L 56.78125 0 
L 9.8125 0 
z
" id="DejaVuSans-69"/>
       <path d="M 30.609375 48.390625 
Q 23.390625 48.390625 19.1875 42.75 
Q 14.984375 37.109375 14.984375 27.296875 
Q 14.984375 17.484375 19.15625 11.84375 
Q 23.34375 6.203125 30.609375 6.203125 
Q 37.796875 6.203125 41.984375 11.859375 
Q 46.1875 17.53125 46.1875 27.296875 
Q 46.1875 37.015625 41.984375 42.703125 
Q 37.796875 48.390625 30.609375 48.390625 
z
M 30.609375 56 
Q 42.328125 56 49.015625 48.375 
Q 55.71875 40.765625 55.71875 27.296875 
Q 55.71875 13.875 49.015625 6.21875 
Q 42.328125 -1.421875 30.609375 -1.421875 
Q 18.84375 -1.421875 12.171875 6.21875 
Q 5.515625 13.875 5.515625 27.296875 
Q 5.515625 40.765625 12.171875 48.375 
Q 18.84375 56 30.609375 56 
z
" id="DejaVuSans-111"/>
       <path d="M 8.59375 75.984375 
L 29.296875 75.984375 
L 29.296875 69 
L 17.578125 69 
L 17.578125 -6.203125 
L 29.296875 -6.203125 
L 29.296875 -13.1875 
L 8.59375 -13.1875 
z
" id="DejaVuSans-91"/>
       <path d="M 9.078125 75.984375 
L 18.109375 75.984375 
L 18.109375 31.109375 
L 44.921875 54.6875 
L 56.390625 54.6875 
L 27.390625 29.109375 
L 57.625 0 
L 45.90625 0 
L 18.109375 26.703125 
L 18.109375 0 
L 9.078125 0 
z
" id="DejaVuSans-107"/>
       <path d="M 9.8125 72.90625 
L 19.671875 72.90625 
L 19.671875 43.015625 
L 55.515625 43.015625 
L 55.515625 72.90625 
L 65.375 72.90625 
L 65.375 0 
L 55.515625 0 
L 55.515625 34.71875 
L 19.671875 34.71875 
L 19.671875 0 
L 9.8125 0 
z
" id="DejaVuSans-72"/>
       <path d="M 5.515625 54.6875 
L 48.1875 54.6875 
L 48.1875 46.484375 
L 14.40625 7.171875 
L 48.1875 7.171875 
L 48.1875 0 
L 4.296875 0 
L 4.296875 8.203125 
L 38.09375 47.515625 
L 5.515625 47.515625 
z
" id="DejaVuSans-122"/>
       <path d="M 30.421875 75.984375 
L 30.421875 -13.1875 
L 9.71875 -13.1875 
L 9.71875 -6.203125 
L 21.390625 -6.203125 
L 21.390625 69 
L 9.71875 69 
L 9.71875 75.984375 
z
" id="DejaVuSans-93"/>
      </defs>
      <use xlink:href="#DejaVuSans-70"/>
      <use x="50.269531" xlink:href="#DejaVuSans-114"/>
      <use x="89.132812" xlink:href="#DejaVuSans-101"/>
      <use x="150.65625" xlink:href="#DejaVuSans-113"/>
      <use x="214.132812" xlink:href="#DejaVuSans-117"/>
      <use x="277.511719" xlink:href="#DejaVuSans-101"/>
      <use x="339.035156" xlink:href="#DejaVuSans-110"/>
      <use x="402.414062" xlink:href="#DejaVuSans-99"/>
      <use x="457.394531" xlink:href="#DejaVuSans-121"/>
      <use x="516.574219" xlink:href="#DejaVuSans-32"/>
      <use x="548.361328" xlink:href="#DejaVuSans-69"/>
      <use x="611.544922" xlink:href="#DejaVuSans-114"/>
      <use x="650.908203" xlink:href="#DejaVuSans-114"/>
      <use x="689.771484" xlink:href="#DejaVuSans-111"/>
      <use x="750.953125" xlink:href="#DejaVuSans-114"/>
      <use x="792.066406" xlink:href="#DejaVuSans-32"/>
      <use x="823.853516" xlink:href="#DejaVuSans-91"/>
      <use x="862.867188" xlink:href="#DejaVuSans-107"/>
      <use x="920.777344" xlink:href="#DejaVuSans-72"/>
      <use x="995.972656" xlink:href="#DejaVuSans-122"/>
      <use x="1048.462891" xlink:href="#DejaVuSans-93"/>
     </g>
    </g>
   </g>
   <g id="line2d_14">
    <path clip-path="url(#p72f859cd6e)" d="M 87.670284 71.481651 
L 88.262226 55.516107 
L 88.854167 45.636312 
L 89.446109 39.333015 
L 90.03805 35.320512 
L 90.460865 33.839335 
L 90.714555 33.61603 
L 90.883681 33.78232 
L 91.13737 34.543421 
L 91.475622 36.567927 
L 91.898438 40.756446 
L 92.405816 48.109383 
L 93.082321 61.434275 
L 93.843388 80.803195 
L 94.773582 110.614651 
L 96.211154 158.382569 
L 96.63397 166.203272 
L 96.887659 168.215959 
L 96.972222 168.39289 
L 97.056785 168.316985 
L 97.225911 167.406542 
L 97.4796 164.19704 
L 97.817853 156.822154 
L 98.409794 137.890473 
L 99.847366 89.068619 
L 100.523871 74.17458 
L 101.115813 65.825104 
L 101.707754 60.563592 
L 102.299696 57.156376 
L 102.891637 54.900943 
L 103.314452 53.960279 
L 103.568142 53.728318 
L 103.821831 53.797213 
L 104.07552 54.208045 
L 104.413772 55.343156 
L 104.836588 57.758268 
L 105.343966 62.081913 
L 106.020471 69.946198 
L 106.866101 82.555474 
L 107.880858 101.470925 
L 109.064741 123.576593 
L 109.487557 127.986166 
L 109.741246 129.034201 
L 109.825809 129.092487 
L 109.994935 128.768675 
L 110.248624 127.217879 
L 110.586877 123.388684 
L 111.178818 113.384932 
L 112.700953 86.396343 
L 113.377458 78.553209 
L 113.969399 74.036008 
L 114.561341 71.191181 
L 115.153282 69.373702 
L 115.829787 67.940311 
L 116.337165 67.257706 
L 116.675418 67.099553 
L 116.929107 67.200932 
L 117.182796 67.530145 
L 117.521048 68.364677 
L 117.943864 70.062676 
L 118.535805 73.521044 
L 119.381436 79.95282 
L 120.31163 88.620788 
L 122.25658 108.099883 
L 122.51027 108.835152 
L 122.679396 108.889432 
L 122.848522 108.599197 
L 123.102211 107.565671 
L 123.525027 104.56564 
L 124.45522 95.511998 
L 125.469977 86.494458 
L 126.231045 81.581845 
L 126.822986 79.067977 
L 127.330365 77.735366 
L 127.922306 76.781664 
L 129.190752 75.276873 
L 129.613568 75.005802 
L 129.95182 75.044048 
L 130.290072 75.387003 
L 130.712888 76.279739 
L 131.304829 78.255951 
L 132.488712 83.285815 
L 133.334343 87.663621 
L 135.110167 97.917411 
L 135.363857 98.215483 
L 135.532983 98.14549 
L 135.786672 97.673505 
L 136.209487 96.137823 
L 137.562496 89.509693 
L 138.746379 84.456228 
L 139.422884 82.403001 
L 139.930262 81.512449 
L 140.437641 81.056974 
L 141.621524 80.210208 
L 142.551718 79.448475 
L 142.88997 79.447577 
L 143.228222 79.694083 
L 143.651038 80.340064 
L 144.496668 82.234729 
L 146.18793 86.297693 
L 146.864434 89.029407 
L 147.625502 91.851192 
L 147.963754 92.404325 
L 148.217444 92.444749 
L 148.471133 92.197864 
L 148.893948 91.349512 
L 151.938219 84.185856 
L 152.445597 83.481616 
L 152.868412 83.226608 
L 154.390548 82.720633 
L 155.489868 81.909779 
L 155.82812 81.945501 
L 156.250935 82.276379 
L 157.012003 83.33427 
L 157.688508 84.121085 
L 158.787828 85.172544 
L 159.210643 86.042006 
L 160.563652 89.245147 
L 160.817341 89.33953 
L 161.07103 89.22147 
L 161.493846 88.717671 
L 162.339477 87.661993 
L 163.607923 86.431071 
L 165.130058 84.328471 
L 165.552873 84.223278 
L 166.905882 84.228337 
L 167.497824 83.789175 
L 168.174328 83.325187 
L 168.597144 83.320014 
L 169.019959 83.58547 
L 170.372968 84.692732 
L 171.641414 85.030332 
L 172.06423 85.651732 
L 173.16355 87.561929 
L 173.501802 87.652944 
L 173.840054 87.459795 
L 174.939374 86.590623 
L 176.292383 86.262285 
L 176.884325 85.58568 
L 177.560829 84.859628 
L 177.983645 84.693407 
L 178.40646 84.759327 
L 179.336654 85.014845 
L 179.759469 84.878797 
L 181.281605 84.082102 
L 181.70442 84.291837 
L 182.888303 85.07826 
L 183.311118 85.024817 
L 184.156749 84.815909 
L 184.495001 84.99902 
L 184.917817 85.525668 
L 185.763447 86.67728 
L 186.1017 86.770624 
L 186.439952 86.60643 
L 187.454709 85.907757 
L 187.877524 85.9797 
L 188.723155 86.203728 
L 189.14597 86.061618 
L 189.991601 85.199566 
L 190.498979 84.916861 
L 190.921795 84.94946 
L 192.274804 85.337524 
L 192.782182 85.062688 
L 193.712376 84.502787 
L 194.135192 84.549906 
L 194.64257 84.869304 
L 195.403638 85.320989 
L 195.826453 85.285328 
L 197.094899 84.854298 
L 197.433151 85.110775 
L 198.617034 86.318844 
L 198.955287 86.239306 
L 200.223733 85.515602 
L 200.646548 85.709208 
L 201.323053 86.05204 
L 201.745868 85.984328 
L 201.914994 85.883169 
L 203.268003 84.985071 
L 203.690819 85.090431 
L 204.790139 85.553881 
L 205.212954 85.440259 
L 206.650526 84.747307 
L 207.073342 84.922212 
L 208.172661 85.518252 
L 208.595477 85.402499 
L 209.694797 84.842904 
L 210.033049 84.991776 
L 210.540427 85.523811 
L 211.132369 86.052514 
L 211.470621 86.060678 
L 211.893437 85.775608 
L 212.569941 85.272034 
L 212.908194 85.266893 
L 213.331009 85.503818 
L 214.092077 85.947974 
L 214.514892 85.905469 
L 215.445086 85.174172 
L 215.867901 85.019026 
L 216.290716 85.099658 
L 217.643726 85.632781 
L 218.151104 85.40402 
L 219.081298 84.884768 
L 219.504113 84.928464 
L 220.096055 85.289295 
L 220.687996 85.608895 
L 221.110811 85.577916 
L 221.61819 85.25538 
L 222.210131 84.888943 
L 222.548384 84.901385 
L 222.971199 85.202552 
L 223.81683 85.949723 
L 224.155082 85.933983 
L 224.577897 85.628957 
L 225.254402 85.121011 
L 225.592654 85.125905 
L 226.01547 85.383964 
L 226.776537 85.877132 
L 227.199353 85.86064 
L 228.129546 85.170679 
L 228.552362 85.02751 
L 228.975177 85.117935 
L 230.328186 85.681756 
L 230.835565 85.464169 
L 231.765759 84.957892 
L 232.188574 85.003118 
L 232.780515 85.361912 
L 233.372457 85.675477 
L 233.795272 85.63776 
L 234.302651 85.303733 
L 234.894592 84.917836 
L 235.232844 84.915997 
L 235.65566 85.196656 
L 236.501291 85.900715 
L 236.839543 85.870441 
L 237.262358 85.552224 
L 237.938863 85.038008 
L 238.277115 85.04672 
L 238.69993 85.314764 
L 239.460998 85.83354 
L 239.883813 85.831334 
L 241.405949 85.046932 
L 241.913327 85.27068 
L 242.758958 85.703507 
L 243.181773 85.662115 
L 243.773715 85.321813 
L 244.450219 84.987887 
L 244.873035 85.032116 
L 245.464976 85.387403 
L 246.056918 85.695461 
L 246.479733 85.652695 
L 246.987111 85.311375 
L 247.663616 84.893977 
L 248.001868 84.939657 
L 248.424684 85.263522 
L 249.185751 85.877568 
L 249.524004 85.84604 
L 249.946819 85.527721 
L 250.623324 85.015998 
L 250.961576 85.027014 
L 251.384391 85.298773 
L 252.145459 85.825337 
L 252.568274 85.802761 
L 254.090409 85.043828 
L 254.597788 85.271986 
L 255.443419 85.712691 
L 255.866234 85.675838 
L 256.458176 85.34175 
L 257.13468 85.013309 
L 257.557495 85.059732 
L 258.149437 85.41672 
L 258.741378 85.725318 
L 259.164194 85.682188 
L 259.671572 85.339037 
L 260.348077 84.915259 
L 260.686329 84.955588 
L 261.109144 85.27078 
L 261.785649 85.838273 
L 262.123901 85.858511 
L 262.546717 85.579809 
L 263.307784 84.980354 
L 263.646037 84.991173 
L 264.068852 85.265583 
L 264.82992 85.802017 
L 265.252735 85.78564 
L 266.098366 85.210703 
L 266.605744 85.027707 
L 267.028559 85.127095 
L 268.381569 85.722019 
L 268.888947 85.517048 
L 269.819141 85.026676 
L 270.241956 85.07457 
L 270.833898 85.432819 
L 271.425839 85.742015 
L 271.848655 85.698939 
L 272.356033 85.355173 
L 273.032538 84.928543 
L 273.37079 84.966255 
L 273.793605 85.277006 
L 274.47011 85.835444 
L 274.808362 85.850931 
L 275.231177 85.566888 
L 275.992245 84.961569 
L 276.330497 84.971796 
L 276.753313 85.247145 
L 277.51438 85.788464 
L 277.937196 85.775413 
L 278.782826 85.205906 
L 279.290205 85.024928 
L 279.71302 85.125489 
L 281.066029 85.724096 
L 281.573408 85.520921 
L 282.503602 85.033556 
L 282.926417 85.082408 
L 283.518359 85.441534 
L 284.1103 85.751225 
L 284.533115 85.708312 
L 285.040494 85.364418 
L 285.716998 84.936583 
L 286.055251 84.97305 
L 286.478066 85.281566 
L 287.154571 85.835173 
L 287.492823 85.848001 
L 287.915638 85.560846 
L 288.676706 84.951763 
L 289.014958 84.961396 
L 289.437774 85.236962 
L 290.198841 85.780635 
L 290.621657 85.785569 
L 291.129035 85.463121 
L 291.80554 85.056756 
L 292.228355 85.064191 
L 292.735733 85.329026 
L 293.496801 85.718626 
L 293.919616 85.684378 
L 294.511558 85.353734 
L 295.188062 85.027777 
L 295.610878 85.074673 
L 296.202819 85.431097 
L 296.794761 85.738116 
L 297.217576 85.693363 
L 297.724955 85.347659 
L 298.401459 84.919428 
L 298.739711 84.957285 
L 299.162527 85.269526 
L 299.839031 85.833274 
L 300.177284 85.852076 
L 300.600099 85.571757 
L 301.361167 84.969821 
L 301.699419 84.980107 
L 302.122234 85.254753 
L 302.883302 85.79404 
L 303.221554 85.798503 
L 303.64437 85.580103 
L 304.574563 85.03421 
L 304.997379 85.089712 
L 305.673883 85.49483 
L 306.265825 85.729719 
L 306.68864 85.654447 
L 308.210775 85.054785 
L 308.718154 85.320724 
L 309.479222 85.749093 
L 309.902037 85.705431 
L 310.409415 85.360507 
L 311.08592 84.931356 
L 311.424172 84.96756 
L 311.846988 85.276546 
L 312.523492 85.833036 
L 312.861744 85.847881 
L 313.28456 85.563035 
L 314.045627 84.955961 
L 314.38388 84.965612 
L 314.806695 85.240837 
L 315.567763 85.78374 
L 315.906015 85.790191 
L 316.32883 85.574082 
L 317.259024 85.03144 
L 317.68184 85.087692 
L 318.358344 85.493721 
L 318.950286 85.729587 
L 319.373101 85.65519 
L 320.895236 85.058704 
L 321.402615 85.325491 
L 322.163682 85.75512 
L 322.586498 85.712141 
L 323.093876 85.367812 
L 323.770381 84.938485 
L 324.108633 84.973964 
L 324.531448 85.281364 
L 325.207953 85.834028 
L 325.546205 85.846675 
L 325.969021 85.55921 
L 326.730088 84.948887 
L 327.068341 84.957978 
L 327.491156 85.233286 
L 328.252224 85.777921 
L 328.590476 85.785426 
L 329.013291 85.570572 
L 329.943485 85.029761 
L 330.3663 85.086422 
L 331.042805 85.492911 
L 331.634746 85.729275 
L 332.057562 85.65535 
L 333.579697 85.060702 
L 334.087075 85.327986 
L 334.848143 85.758351 
L 335.270958 85.715787 
L 335.778337 85.37187 
L 336.454841 84.942626 
L 336.793094 84.977812 
L 337.215909 85.284463 
L 337.892414 85.835144 
L 338.230666 85.846587 
L 338.653481 85.557632 
L 339.414549 84.945307 
L 339.752801 84.953974 
L 340.175617 85.229196 
L 340.936684 85.774628 
L 341.3595 85.781151 
L 341.866878 85.460288 
L 342.543383 85.054905 
L 342.966198 85.062506 
L 343.473576 85.327587 
L 344.234644 85.718334 
L 344.657459 85.685051 
L 345.249401 85.355672 
L 345.925906 85.030544 
L 346.348721 85.077662 
L 346.940662 85.434376 
L 347.532604 85.741931 
L 347.955419 85.697604 
L 348.462798 85.352086 
L 349.139302 84.923027 
L 349.477555 84.960072 
L 349.90037 85.271219 
L 350.576874 85.833603 
L 350.915127 85.851849 
L 351.337942 85.57068 
L 352.09901 84.966608 
L 352.437262 84.976076 
L 352.860077 85.250269 
L 353.621145 85.790533 
L 353.959397 85.795816 
L 354.382213 85.578327 
L 355.312407 85.033104 
L 355.735222 85.088531 
L 356.411726 85.493822 
L 357.003668 85.729423 
L 357.426483 85.654819 
L 358.948619 85.056182 
L 359.455997 85.322171 
L 360.217065 85.751092 
L 360.63988 85.707873 
L 361.147258 85.363215 
L 361.823763 84.933499 
L 362.162015 84.96912 
L 362.584831 85.277405 
L 363.261335 85.833363 
L 363.599588 85.848114 
L 364.022403 85.562964 
L 364.783471 84.954445 
L 365.121723 84.963404 
L 365.544538 85.238166 
L 366.305606 85.781675 
L 366.643858 85.788711 
L 367.066673 85.573222 
L 367.996867 85.030797 
L 368.419683 85.086853 
L 369.096187 85.492893 
L 369.688129 85.72929 
L 370.110944 85.655391 
L 371.633079 85.059304 
L 372.140458 85.326024 
L 372.901525 85.75613 
L 373.324341 85.713588 
L 373.831719 85.369549 
L 374.508224 84.93977 
L 374.846476 84.974773 
L 375.269291 85.281665 
L 375.945796 85.834235 
L 376.284048 85.847041 
L 376.706864 85.559586 
L 377.467931 84.948243 
L 377.806184 84.956737 
L 378.228999 85.231606 
L 378.990067 85.77668 
L 379.328319 85.784649 
L 379.751134 85.570259 
L 380.681328 85.02941 
L 381.104143 85.08581 
L 381.780648 85.492228 
L 382.372589 85.72903 
L 382.795405 85.655512 
L 384.31754 85.060899 
L 384.824919 85.32804 
L 385.585986 85.758825 
L 386.008802 85.716688 
L 386.51618 85.373064 
L 387.192685 84.943412 
L 387.530937 84.97817 
L 387.953752 85.284408 
L 388.630257 85.835221 
L 388.968509 85.846961 
L 389.391324 85.55819 
L 390.152392 84.945103 
L 390.490644 84.953239 
L 390.91346 85.228052 
L 391.674527 85.773855 
L 392.097343 85.780873 
L 392.604721 85.460369 
L 393.281226 85.054794 
L 393.704041 85.062091 
L 394.21142 85.326973 
L 394.972487 85.718072 
L 395.395303 85.685157 
L 395.987244 85.356081 
L 396.663749 85.030755 
L 397.086564 85.077611 
L 397.678506 85.434193 
L 398.270447 85.742117 
L 398.693262 85.698208 
L 399.200641 85.352979 
L 399.877145 84.923526 
L 400.215398 84.960164 
L 400.638213 85.270943 
L 401.314718 85.833573 
L 401.65297 85.85219 
L 402.075785 85.571303 
L 402.836853 84.966621 
L 403.175105 84.975601 
L 403.597921 85.249412 
L 404.358988 85.790022 
L 404.69724 85.795675 
L 405.120056 85.578522 
L 406.05025 85.033043 
L 406.473065 85.088153 
L 407.14957 85.493311 
L 407.741511 85.729281 
L 408.164326 85.655012 
L 409.686462 85.056082 
L 410.19384 85.321851 
L 410.954908 85.751125 
L 411.377723 85.708315 
L 411.885102 85.363941 
L 412.561606 84.933835 
L 412.899858 84.969058 
L 413.322674 85.276993 
L 413.999178 85.833257 
L 414.337431 85.848417 
L 414.760246 85.563603 
L 415.521314 84.954562 
L 415.859566 84.963062 
L 416.282381 85.237461 
L 417.043449 85.781309 
L 417.381701 85.788701 
L 417.804517 85.573526 
L 418.73471 85.0308 
L 419.157526 85.086528 
L 419.83403 85.492425 
L 420.425972 85.72918 
L 420.848787 85.655605 
L 422.370922 85.059159 
L 422.878301 85.32564 
L 423.639369 85.756081 
L 424.062184 85.713944 
L 424.569562 85.370185 
L 425.246067 84.940015 
L 425.584319 84.974623 
L 426.007135 85.281174 
L 426.683639 85.834077 
L 427.021891 85.847312 
L 427.444707 85.560222 
L 428.205774 84.948409 
L 428.544027 84.95646 
L 428.966842 85.230981 
L 429.72791 85.776395 
L 430.066162 85.784712 
L 430.488977 85.570624 
L 431.419171 85.029451 
L 431.841987 85.085516 
L 432.518491 85.491787 
L 433.110433 85.728943 
L 433.533248 85.655742 
L 435.055383 85.060734 
L 435.562762 85.327625 
L 436.323829 85.758734 
L 436.746645 85.716998 
L 437.254023 85.373651 
L 437.930528 84.943606 
L 438.26878 84.97797 
L 438.691595 85.28387 
L 439.3681 85.835029 
L 439.706352 85.847209 
L 440.129168 85.558819 
L 440.890235 84.945291 
L 441.228488 84.952993 
L 441.651303 85.227467 
L 442.412371 85.773614 
L 442.835186 85.780248 
L 443.342564 85.460264 
L 444.019069 85.054629 
L 444.441884 85.061672 
L 444.949263 85.3264 
L 445.71033 85.717911 
L 446.133146 85.685393 
L 446.725087 85.356654 
L 447.401592 85.03116 
L 447.824407 85.077773 
L 448.416349 85.434263 
L 449.00829 85.742611 
L 449.431105 85.699166 
L 449.938484 85.354274 
L 450.614988 84.924421 
L 450.953241 84.960596 
L 451.376056 85.270873 
L 452.137124 85.860719 
L 452.475376 85.819595 
L 452.898191 85.490458 
L 453.574696 84.966043 
L 453.912948 84.974563 
L 454.335764 85.248072 
L 455.096831 85.789215 
L 455.435084 85.795314 
L 455.857899 85.578578 
L 456.788093 85.032954 
L 457.210908 85.087777 
L 457.887413 85.492835 
L 458.479354 85.729193 
L 458.90217 85.655274 
L 460.424305 85.056107 
L 460.931683 85.321673 
L 461.692751 85.751331 
L 462.115566 85.708953 
L 462.622945 85.364891 
L 463.299449 84.934412 
L 463.637702 84.96922 
L 464.060517 85.276746 
L 464.737021 85.833135 
L 465.075274 85.848599 
L 465.498089 85.56401 
L 466.259157 84.954366 
L 466.597409 84.962418 
L 467.020224 85.236495 
L 467.781292 85.780774 
L 468.119544 85.788558 
L 468.54236 85.573738 
L 469.472554 85.030782 
L 469.895369 85.086204 
L 470.571873 85.491976 
L 471.163815 85.729095 
L 471.58663 85.655847 
L 473.108766 85.059085 
L 473.616144 85.325339 
L 474.377212 85.756128 
L 474.800027 85.714401 
L 475.307405 85.370937 
L 475.98391 84.9404 
L 476.322162 84.974614 
L 476.744978 85.280802 
L 477.421482 85.833936 
L 477.759735 85.847536 
L 478.18255 85.560741 
L 478.943618 84.948407 
L 479.28187 84.956023 
L 479.704685 85.230218 
L 480.465753 85.776014 
L 480.804005 85.784693 
L 481.22682 85.570926 
L 482.157014 85.029476 
L 482.57983 85.085224 
L 483.256334 85.491358 
L 483.848276 85.728864 
L 484.271091 85.655979 
L 485.793226 85.060609 
L 486.300605 85.32726 
L 487.061672 85.758695 
L 487.484488 85.717357 
L 487.991866 85.374293 
L 488.668371 84.943879 
L 489.006623 84.977858 
L 489.429438 85.283416 
L 490.105943 85.834863 
L 490.444195 85.847439 
L 490.867011 85.559384 
L 491.628078 84.945388 
L 491.966331 84.952666 
L 492.389146 85.226814 
L 493.150214 85.773319 
L 493.488466 85.78247 
L 493.488466 85.78247 
" style="fill:none;stroke:#1f77b4;stroke-linecap:square;stroke-width:1.5;"/>
   </g>
   <g id="patch_3">
    <path d="M 67.379375 175.131733 
L 67.379375 26.877187 
" style="fill:none;stroke:#000000;stroke-linecap:square;stroke-linejoin:miter;stroke-width:0.8;"/>
   </g>
   <g id="patch_4">
    <path d="M 513.779375 175.131733 
L 513.779375 26.877187 
" style="fill:none;stroke:#000000;stroke-linecap:square;stroke-linejoin:miter;stroke-width:0.8;"/>
   </g>
   <g id="patch_5">
    <path d="M 67.379375 175.131733 
L 513.779375 175.131733 
" style="fill:none;stroke:#000000;stroke-linecap:square;stroke-linejoin:miter;stroke-width:0.8;"/>
   </g>
   <g id="patch_6">
    <path d="M 67.379375 26.877187 
L 513.779375 26.877187 
" style="fill:none;stroke:#000000;stroke-linecap:square;stroke-linejoin:miter;stroke-width:0.8;"/>
   </g>
   <g id="text_6">
    <!-- Tracked Frequency Error -->
    <g transform="translate(181.962031 20.877187)scale(0.18 -0.18)">
     <defs>
      <path d="M -0.296875 72.90625 
L 61.375 72.90625 
L 61.375 64.59375 
L 35.5 64.59375 
L 35.5 0 
L 25.59375 0 
L 25.59375 64.59375 
L -0.296875 64.59375 
z
" id="DejaVuSans-84"/>
      <path d="M 34.28125 27.484375 
Q 23.390625 27.484375 19.1875 25 
Q 14.984375 22.515625 14.984375 16.5 
Q 14.984375 11.71875 18.140625 8.90625 
Q 21.296875 6.109375 26.703125 6.109375 
Q 34.1875 6.109375 38.703125 11.40625 
Q 43.21875 16.703125 43.21875 25.484375 
L 43.21875 27.484375 
z
M 52.203125 31.203125 
L 52.203125 0 
L 43.21875 0 
L 43.21875 8.296875 
Q 40.140625 3.328125 35.546875 0.953125 
Q 30.953125 -1.421875 24.3125 -1.421875 
Q 15.921875 -1.421875 10.953125 3.296875 
Q 6 8.015625 6 15.921875 
Q 6 25.140625 12.171875 29.828125 
Q 18.359375 34.515625 30.609375 34.515625 
L 43.21875 34.515625 
L 43.21875 35.40625 
Q 43.21875 41.609375 39.140625 45 
Q 35.0625 48.390625 27.6875 48.390625 
Q 23 48.390625 18.546875 47.265625 
Q 14.109375 46.140625 10.015625 43.890625 
L 10.015625 52.203125 
Q 14.9375 54.109375 19.578125 55.046875 
Q 24.21875 56 28.609375 56 
Q 40.484375 56 46.34375 49.84375 
Q 52.203125 43.703125 52.203125 31.203125 
z
" id="DejaVuSans-97"/>
      <path d="M 45.40625 46.390625 
L 45.40625 75.984375 
L 54.390625 75.984375 
L 54.390625 0 
L 45.40625 0 
L 45.40625 8.203125 
Q 42.578125 3.328125 38.25 0.953125 
Q 33.9375 -1.421875 27.875 -1.421875 
Q 17.96875 -1.421875 11.734375 6.484375 
Q 5.515625 14.40625 5.515625 27.296875 
Q 5.515625 40.1875 11.734375 48.09375 
Q 17.96875 56 27.875 56 
Q 33.9375 56 38.25 53.625 
Q 42.578125 51.265625 45.40625 46.390625 
z
M 14.796875 27.296875 
Q 14.796875 17.390625 18.875 11.75 
Q 22.953125 6.109375 30.078125 6.109375 
Q 37.203125 6.109375 41.296875 11.75 
Q 45.40625 17.390625 45.40625 27.296875 
Q 45.40625 37.203125 41.296875 42.84375 
Q 37.203125 48.484375 30.078125 48.484375 
Q 22.953125 48.484375 18.875 42.84375 
Q 14.796875 37.203125 14.796875 27.296875 
z
" id="DejaVuSans-100"/>
     </defs>
     <use xlink:href="#DejaVuSans-84"/>
     <use x="46.333984" xlink:href="#DejaVuSans-114"/>
     <use x="87.447266" xlink:href="#DejaVuSans-97"/>
     <use x="148.726562" xlink:href="#DejaVuSans-99"/>
     <use x="203.707031" xlink:href="#DejaVuSans-107"/>
     <use x="257.992188" xlink:href="#DejaVuSans-101"/>
     <use x="319.515625" xlink:href="#DejaVuSans-100"/>
     <use x="382.992188" xlink:href="#DejaVuSans-32"/>
     <use x="414.779297" xlink:href="#DejaVuSans-70"/>
     <use x="465.048828" xlink:href="#DejaVuSans-114"/>
     <use x="503.912109" xlink:href="#DejaVuSans-101"/>
     <use x="565.435547" xlink:href="#DejaVuSans-113"/>
     <use x="628.912109" xlink:href="#DejaVuSans-117"/>
     <use x="692.291016" xlink:href="#DejaVuSans-101"/>
     <use x="753.814453" xlink:href="#DejaVuSans-110"/>
     <use x="817.193359" xlink:href="#DejaVuSans-99"/>
     <use x="872.173828" xlink:href="#DejaVuSans-121"/>
     <use x="931.353516" xlink:href="#DejaVuSans-32"/>
     <use x="963.140625" xlink:href="#DejaVuSans-69"/>
     <use x="1026.324219" xlink:href="#DejaVuSans-114"/>
     <use x="1065.6875" xlink:href="#DejaVuSans-114"/>
     <use x="1104.550781" xlink:href="#DejaVuSans-111"/>
     <use x="1165.732422" xlink:href="#DejaVuSans-114"/>
    </g>
   </g>
  </g>
  <g id="axes_2">
   <g id="patch_7">
    <path d="M 67.379375 353.037187 
L 513.779375 353.037187 
L 513.779375 204.782642 
L 67.379375 204.782642 
z
" style="fill:#ffffff;"/>
   </g>
   <g id="matplotlib.axis_3">
    <g id="xtick_10">
     <g id="line2d_15">
      <g>
       <use style="stroke:#000000;stroke-width:0.8;" x="87.670284" xlink:href="#m01560fdf84" y="353.037187"/>
      </g>
     </g>
     <g id="text_7">
      <!-- 0.00 -->
      <g transform="translate(72.084347 370.675)scale(0.14 -0.14)">
       <defs>
        <path d="M 10.6875 12.40625 
L 21 12.40625 
L 21 0 
L 10.6875 0 
z
" id="DejaVuSans-46"/>
       </defs>
       <use xlink:href="#DejaVuSans-48"/>
       <use x="63.623047" xlink:href="#DejaVuSans-46"/>
       <use x="95.410156" xlink:href="#DejaVuSans-48"/>
       <use x="159.033203" xlink:href="#DejaVuSans-48"/>
      </g>
     </g>
    </g>
    <g id="xtick_11">
     <g id="line2d_16">
      <g>
       <use style="stroke:#000000;stroke-width:0.8;" x="138.408127" xlink:href="#m01560fdf84" y="353.037187"/>
      </g>
     </g>
     <g id="text_8">
      <!-- 0.25 -->
      <g transform="translate(122.82219 370.675)scale(0.14 -0.14)">
       <defs>
        <path d="M 10.796875 72.90625 
L 49.515625 72.90625 
L 49.515625 64.59375 
L 19.828125 64.59375 
L 19.828125 46.734375 
Q 21.96875 47.46875 24.109375 47.828125 
Q 26.265625 48.1875 28.421875 48.1875 
Q 40.625 48.1875 47.75 41.5 
Q 54.890625 34.8125 54.890625 23.390625 
Q 54.890625 11.625 47.5625 5.09375 
Q 40.234375 -1.421875 26.90625 -1.421875 
Q 22.3125 -1.421875 17.546875 -0.640625 
Q 12.796875 0.140625 7.71875 1.703125 
L 7.71875 11.625 
Q 12.109375 9.234375 16.796875 8.0625 
Q 21.484375 6.890625 26.703125 6.890625 
Q 35.15625 6.890625 40.078125 11.328125 
Q 45.015625 15.765625 45.015625 23.390625 
Q 45.015625 31 40.078125 35.4375 
Q 35.15625 39.890625 26.703125 39.890625 
Q 22.75 39.890625 18.8125 39.015625 
Q 14.890625 38.140625 10.796875 36.28125 
z
" id="DejaVuSans-53"/>
       </defs>
       <use xlink:href="#DejaVuSans-48"/>
       <use x="63.623047" xlink:href="#DejaVuSans-46"/>
       <use x="95.410156" xlink:href="#DejaVuSans-50"/>
       <use x="159.033203" xlink:href="#DejaVuSans-53"/>
      </g>
     </g>
    </g>
    <g id="xtick_12">
     <g id="line2d_17">
      <g>
       <use style="stroke:#000000;stroke-width:0.8;" x="189.14597" xlink:href="#m01560fdf84" y="353.037187"/>
      </g>
     </g>
     <g id="text_9">
      <!-- 0.50 -->
      <g transform="translate(173.560033 370.675)scale(0.14 -0.14)">
       <use xlink:href="#DejaVuSans-48"/>
       <use x="63.623047" xlink:href="#DejaVuSans-46"/>
       <use x="95.410156" xlink:href="#DejaVuSans-53"/>
       <use x="159.033203" xlink:href="#DejaVuSans-48"/>
      </g>
     </g>
    </g>
    <g id="xtick_13">
     <g id="line2d_18">
      <g>
       <use style="stroke:#000000;stroke-width:0.8;" x="239.883813" xlink:href="#m01560fdf84" y="353.037187"/>
      </g>
     </g>
     <g id="text_10">
      <!-- 0.75 -->
      <g transform="translate(224.297876 370.675)scale(0.14 -0.14)">
       <defs>
        <path d="M 8.203125 72.90625 
L 55.078125 72.90625 
L 55.078125 68.703125 
L 28.609375 0 
L 18.3125 0 
L 43.21875 64.59375 
L 8.203125 64.59375 
z
" id="DejaVuSans-55"/>
       </defs>
       <use xlink:href="#DejaVuSans-48"/>
       <use x="63.623047" xlink:href="#DejaVuSans-46"/>
       <use x="95.410156" xlink:href="#DejaVuSans-55"/>
       <use x="159.033203" xlink:href="#DejaVuSans-53"/>
      </g>
     </g>
    </g>
    <g id="xtick_14">
     <g id="line2d_19">
      <g>
       <use style="stroke:#000000;stroke-width:0.8;" x="290.621657" xlink:href="#m01560fdf84" y="353.037187"/>
      </g>
     </g>
     <g id="text_11">
      <!-- 1.00 -->
      <g transform="translate(275.035719 370.675)scale(0.14 -0.14)">
       <defs>
        <path d="M 12.40625 8.296875 
L 28.515625 8.296875 
L 28.515625 63.921875 
L 10.984375 60.40625 
L 10.984375 69.390625 
L 28.421875 72.90625 
L 38.28125 72.90625 
L 38.28125 8.296875 
L 54.390625 8.296875 
L 54.390625 0 
L 12.40625 0 
z
" id="DejaVuSans-49"/>
       </defs>
       <use xlink:href="#DejaVuSans-49"/>
       <use x="63.623047" xlink:href="#DejaVuSans-46"/>
       <use x="95.410156" xlink:href="#DejaVuSans-48"/>
       <use x="159.033203" xlink:href="#DejaVuSans-48"/>
      </g>
     </g>
    </g>
    <g id="xtick_15">
     <g id="line2d_20">
      <g>
       <use style="stroke:#000000;stroke-width:0.8;" x="341.3595" xlink:href="#m01560fdf84" y="353.037187"/>
      </g>
     </g>
     <g id="text_12">
      <!-- 1.25 -->
      <g transform="translate(325.773562 370.675)scale(0.14 -0.14)">
       <use xlink:href="#DejaVuSans-49"/>
       <use x="63.623047" xlink:href="#DejaVuSans-46"/>
       <use x="95.410156" xlink:href="#DejaVuSans-50"/>
       <use x="159.033203" xlink:href="#DejaVuSans-53"/>
      </g>
     </g>
    </g>
    <g id="xtick_16">
     <g id="line2d_21">
      <g>
       <use style="stroke:#000000;stroke-width:0.8;" x="392.097343" xlink:href="#m01560fdf84" y="353.037187"/>
      </g>
     </g>
     <g id="text_13">
      <!-- 1.50 -->
      <g transform="translate(376.511405 370.675)scale(0.14 -0.14)">
       <use xlink:href="#DejaVuSans-49"/>
       <use x="63.623047" xlink:href="#DejaVuSans-46"/>
       <use x="95.410156" xlink:href="#DejaVuSans-53"/>
       <use x="159.033203" xlink:href="#DejaVuSans-48"/>
      </g>
     </g>
    </g>
    <g id="xtick_17">
     <g id="line2d_22">
      <g>
       <use style="stroke:#000000;stroke-width:0.8;" x="442.835186" xlink:href="#m01560fdf84" y="353.037187"/>
      </g>
     </g>
     <g id="text_14">
      <!-- 1.75 -->
      <g transform="translate(427.249248 370.675)scale(0.14 -0.14)">
       <use xlink:href="#DejaVuSans-49"/>
       <use x="63.623047" xlink:href="#DejaVuSans-46"/>
       <use x="95.410156" xlink:href="#DejaVuSans-55"/>
       <use x="159.033203" xlink:href="#DejaVuSans-53"/>
      </g>
     </g>
    </g>
    <g id="xtick_18">
     <g id="line2d_23">
      <g>
       <use style="stroke:#000000;stroke-width:0.8;" x="493.573029" xlink:href="#m01560fdf84" y="353.037187"/>
      </g>
     </g>
     <g id="text_15">
      <!-- 2.00 -->
      <g transform="translate(477.987091 370.675)scale(0.14 -0.14)">
       <use xlink:href="#DejaVuSans-50"/>
       <use x="63.623047" xlink:href="#DejaVuSans-46"/>
       <use x="95.410156" xlink:href="#DejaVuSans-48"/>
       <use x="159.033203" xlink:href="#DejaVuSans-48"/>
      </g>
     </g>
    </g>
    <g id="text_16">
     <!-- Time [ms] -->
     <g transform="translate(245.220781 391.26375)scale(0.18 -0.18)">
      <defs>
       <path d="M 9.421875 54.6875 
L 18.40625 54.6875 
L 18.40625 0 
L 9.421875 0 
z
M 9.421875 75.984375 
L 18.40625 75.984375 
L 18.40625 64.59375 
L 9.421875 64.59375 
z
" id="DejaVuSans-105"/>
       <path d="M 52 44.1875 
Q 55.375 50.25 60.0625 53.125 
Q 64.75 56 71.09375 56 
Q 79.640625 56 84.28125 50.015625 
Q 88.921875 44.046875 88.921875 33.015625 
L 88.921875 0 
L 79.890625 0 
L 79.890625 32.71875 
Q 79.890625 40.578125 77.09375 44.375 
Q 74.3125 48.1875 68.609375 48.1875 
Q 61.625 48.1875 57.5625 43.546875 
Q 53.515625 38.921875 53.515625 30.90625 
L 53.515625 0 
L 44.484375 0 
L 44.484375 32.71875 
Q 44.484375 40.625 41.703125 44.40625 
Q 38.921875 48.1875 33.109375 48.1875 
Q 26.21875 48.1875 22.15625 43.53125 
Q 18.109375 38.875 18.109375 30.90625 
L 18.109375 0 
L 9.078125 0 
L 9.078125 54.6875 
L 18.109375 54.6875 
L 18.109375 46.1875 
Q 21.1875 51.21875 25.484375 53.609375 
Q 29.78125 56 35.6875 56 
Q 41.65625 56 45.828125 52.96875 
Q 50 49.953125 52 44.1875 
z
" id="DejaVuSans-109"/>
       <path d="M 44.28125 53.078125 
L 44.28125 44.578125 
Q 40.484375 46.53125 36.375 47.5 
Q 32.28125 48.484375 27.875 48.484375 
Q 21.1875 48.484375 17.84375 46.4375 
Q 14.5 44.390625 14.5 40.28125 
Q 14.5 37.15625 16.890625 35.375 
Q 19.28125 33.59375 26.515625 31.984375 
L 29.59375 31.296875 
Q 39.15625 29.25 43.1875 25.515625 
Q 47.21875 21.78125 47.21875 15.09375 
Q 47.21875 7.46875 41.1875 3.015625 
Q 35.15625 -1.421875 24.609375 -1.421875 
Q 20.21875 -1.421875 15.453125 -0.5625 
Q 10.6875 0.296875 5.421875 2 
L 5.421875 11.28125 
Q 10.40625 8.6875 15.234375 7.390625 
Q 20.0625 6.109375 24.8125 6.109375 
Q 31.15625 6.109375 34.5625 8.28125 
Q 37.984375 10.453125 37.984375 14.40625 
Q 37.984375 18.0625 35.515625 20.015625 
Q 33.0625 21.96875 24.703125 23.78125 
L 21.578125 24.515625 
Q 13.234375 26.265625 9.515625 29.90625 
Q 5.8125 33.546875 5.8125 39.890625 
Q 5.8125 47.609375 11.28125 51.796875 
Q 16.75 56 26.8125 56 
Q 31.78125 56 36.171875 55.265625 
Q 40.578125 54.546875 44.28125 53.078125 
z
" id="DejaVuSans-115"/>
      </defs>
      <use xlink:href="#DejaVuSans-84"/>
      <use x="57.958984" xlink:href="#DejaVuSans-105"/>
      <use x="85.742188" xlink:href="#DejaVuSans-109"/>
      <use x="183.154297" xlink:href="#DejaVuSans-101"/>
      <use x="244.677734" xlink:href="#DejaVuSans-32"/>
      <use x="276.464844" xlink:href="#DejaVuSans-91"/>
      <use x="315.478516" xlink:href="#DejaVuSans-109"/>
      <use x="412.890625" xlink:href="#DejaVuSans-115"/>
      <use x="464.990234" xlink:href="#DejaVuSans-93"/>
     </g>
    </g>
   </g>
   <g id="matplotlib.axis_4">
    <g id="ytick_5">
     <g id="line2d_24">
      <g>
       <use style="stroke:#000000;stroke-width:0.8;" x="67.379375" xlink:href="#m66f3f01735" y="331.98382"/>
      </g>
     </g>
     <g id="text_17">
      <!-- 0 -->
      <g transform="translate(51.471875 337.302726)scale(0.14 -0.14)">
       <use xlink:href="#DejaVuSans-48"/>
      </g>
     </g>
    </g>
    <g id="ytick_6">
     <g id="line2d_25">
      <g>
       <use style="stroke:#000000;stroke-width:0.8;" x="67.379375" xlink:href="#m66f3f01735" y="281.416678"/>
      </g>
     </g>
     <g id="text_18">
      <!-- 2000 -->
      <g transform="translate(24.749375 286.735585)scale(0.14 -0.14)">
       <use xlink:href="#DejaVuSans-50"/>
       <use x="63.623047" xlink:href="#DejaVuSans-48"/>
       <use x="127.246094" xlink:href="#DejaVuSans-48"/>
       <use x="190.869141" xlink:href="#DejaVuSans-48"/>
      </g>
     </g>
    </g>
    <g id="ytick_7">
     <g id="line2d_26">
      <g>
       <use style="stroke:#000000;stroke-width:0.8;" x="67.379375" xlink:href="#m66f3f01735" y="230.849537"/>
      </g>
     </g>
     <g id="text_19">
      <!-- 4000 -->
      <g transform="translate(24.749375 236.168443)scale(0.14 -0.14)">
       <use xlink:href="#DejaVuSans-52"/>
       <use x="63.623047" xlink:href="#DejaVuSans-48"/>
       <use x="127.246094" xlink:href="#DejaVuSans-48"/>
       <use x="190.869141" xlink:href="#DejaVuSans-48"/>
      </g>
     </g>
    </g>
    <g id="text_20">
     <!-- Estimated coefficient [arb] -->
     <g transform="translate(17.837813 372.388352)rotate(-90)scale(0.14 -0.14)">
      <defs>
       <path d="M 18.3125 70.21875 
L 18.3125 54.6875 
L 36.8125 54.6875 
L 36.8125 47.703125 
L 18.3125 47.703125 
L 18.3125 18.015625 
Q 18.3125 11.328125 20.140625 9.421875 
Q 21.96875 7.515625 27.59375 7.515625 
L 36.8125 7.515625 
L 36.8125 0 
L 27.59375 0 
Q 17.1875 0 13.234375 3.875 
Q 9.28125 7.765625 9.28125 18.015625 
L 9.28125 47.703125 
L 2.6875 47.703125 
L 2.6875 54.6875 
L 9.28125 54.6875 
L 9.28125 70.21875 
z
" id="DejaVuSans-116"/>
       <path d="M 37.109375 75.984375 
L 37.109375 68.5 
L 28.515625 68.5 
Q 23.6875 68.5 21.796875 66.546875 
Q 19.921875 64.59375 19.921875 59.515625 
L 19.921875 54.6875 
L 34.71875 54.6875 
L 34.71875 47.703125 
L 19.921875 47.703125 
L 19.921875 0 
L 10.890625 0 
L 10.890625 47.703125 
L 2.296875 47.703125 
L 2.296875 54.6875 
L 10.890625 54.6875 
L 10.890625 58.5 
Q 10.890625 67.625 15.140625 71.796875 
Q 19.390625 75.984375 28.609375 75.984375 
z
" id="DejaVuSans-102"/>
       <path d="M 48.6875 27.296875 
Q 48.6875 37.203125 44.609375 42.84375 
Q 40.53125 48.484375 33.40625 48.484375 
Q 26.265625 48.484375 22.1875 42.84375 
Q 18.109375 37.203125 18.109375 27.296875 
Q 18.109375 17.390625 22.1875 11.75 
Q 26.265625 6.109375 33.40625 6.109375 
Q 40.53125 6.109375 44.609375 11.75 
Q 48.6875 17.390625 48.6875 27.296875 
z
M 18.109375 46.390625 
Q 20.953125 51.265625 25.265625 53.625 
Q 29.59375 56 35.59375 56 
Q 45.5625 56 51.78125 48.09375 
Q 58.015625 40.1875 58.015625 27.296875 
Q 58.015625 14.40625 51.78125 6.484375 
Q 45.5625 -1.421875 35.59375 -1.421875 
Q 29.59375 -1.421875 25.265625 0.953125 
Q 20.953125 3.328125 18.109375 8.203125 
L 18.109375 0 
L 9.078125 0 
L 9.078125 75.984375 
L 18.109375 75.984375 
z
" id="DejaVuSans-98"/>
      </defs>
      <use xlink:href="#DejaVuSans-69"/>
      <use x="63.183594" xlink:href="#DejaVuSans-115"/>
      <use x="115.283203" xlink:href="#DejaVuSans-116"/>
      <use x="154.492188" xlink:href="#DejaVuSans-105"/>
      <use x="182.275391" xlink:href="#DejaVuSans-109"/>
      <use x="279.6875" xlink:href="#DejaVuSans-97"/>
      <use x="340.966797" xlink:href="#DejaVuSans-116"/>
      <use x="380.175781" xlink:href="#DejaVuSans-101"/>
      <use x="441.699219" xlink:href="#DejaVuSans-100"/>
      <use x="505.175781" xlink:href="#DejaVuSans-32"/>
      <use x="536.962891" xlink:href="#DejaVuSans-99"/>
      <use x="591.943359" xlink:href="#DejaVuSans-111"/>
      <use x="653.125" xlink:href="#DejaVuSans-101"/>
      <use x="714.648438" xlink:href="#DejaVuSans-102"/>
      <use x="749.853516" xlink:href="#DejaVuSans-102"/>
      <use x="785.058594" xlink:href="#DejaVuSans-105"/>
      <use x="812.841797" xlink:href="#DejaVuSans-99"/>
      <use x="867.822266" xlink:href="#DejaVuSans-105"/>
      <use x="895.605469" xlink:href="#DejaVuSans-101"/>
      <use x="957.128906" xlink:href="#DejaVuSans-110"/>
      <use x="1020.507812" xlink:href="#DejaVuSans-116"/>
      <use x="1059.716797" xlink:href="#DejaVuSans-32"/>
      <use x="1091.503906" xlink:href="#DejaVuSans-91"/>
      <use x="1130.517578" xlink:href="#DejaVuSans-97"/>
      <use x="1191.796875" xlink:href="#DejaVuSans-114"/>
      <use x="1232.910156" xlink:href="#DejaVuSans-98"/>
      <use x="1296.386719" xlink:href="#DejaVuSans-93"/>
     </g>
    </g>
   </g>
   <g id="line2d_27">
    <path clip-path="url(#pb0ba2aeb93)" d="M 87.670284 341.796831 
L 88.008536 332.587365 
L 88.600478 309.160061 
L 89.784361 260.796216 
L 90.291739 248.244105 
L 90.629992 244.336597 
L 90.799118 243.84354 
L 90.883681 243.966492 
L 91.052807 244.942304 
L 91.306496 248.161128 
L 91.729312 257.640246 
L 92.405816 279.64517 
L 93.251447 306.247891 
L 93.674262 313.758049 
L 93.927951 315.307195 
L 94.012514 315.267305 
L 94.181641 314.312321 
L 94.43533 310.645524 
L 94.773582 301.656929 
L 95.280961 280.673179 
L 96.63397 218.554598 
L 96.972222 212.31074 
L 97.141348 211.521485 
L 97.225911 211.716912 
L 97.395037 213.249731 
L 97.648727 218.169262 
L 98.071542 231.713522 
L 99.339988 275.932029 
L 99.67824 281.042825 
L 99.93193 282.265406 
L 100.016493 282.194025 
L 100.185619 281.379408 
L 100.439308 278.63675 
L 100.862123 270.859679 
L 101.707754 249.47919 
L 102.553385 230.312796 
L 103.060763 223.542602 
L 103.399015 221.760064 
L 103.483579 221.684746 
L 103.568142 221.760174 
L 103.737268 222.362775 
L 103.990957 224.373708 
L 104.329209 228.973271 
L 104.836588 239.135577 
L 106.358723 272.117784 
L 106.696975 275.544365 
L 106.950664 276.504085 
L 107.035228 276.4991 
L 107.204354 275.994436 
L 107.458043 274.0156 
L 107.796295 269.254358 
L 108.388237 256.64065 
L 109.233867 238.25694 
L 109.57212 234.281421 
L 109.825809 233.348821 
L 109.910372 233.452747 
L 110.079498 234.274092 
L 110.333187 236.938487 
L 110.756003 244.389744 
L 112.109012 271.013934 
L 112.447264 273.897871 
L 112.700953 274.637528 
L 112.785516 274.621938 
L 112.954643 274.221167 
L 113.208332 272.778815 
L 113.631147 268.587981 
L 114.561341 255.813724 
L 115.322409 246.852642 
L 115.745224 243.884129 
L 116.083476 242.881775 
L 116.252602 242.882005 
L 116.421729 243.227879 
L 116.675418 244.395754 
L 117.01367 247.115458 
L 117.521048 253.293471 
L 119.296873 277.44708 
L 119.635125 279.421013 
L 119.888814 279.997438 
L 120.057941 279.940561 
L 120.227067 279.535218 
L 120.480756 278.304246 
L 120.903571 274.829245 
L 122.25658 262.110555 
L 122.51027 261.614235 
L 122.679396 261.838183 
L 122.933085 262.991449 
L 123.271337 265.858365 
L 123.947842 274.167631 
L 124.70891 282.786019 
L 125.131725 285.591021 
L 125.469977 286.530234 
L 125.639103 286.568423 
L 125.808229 286.337753 
L 126.061919 285.53862 
L 126.484734 283.255935 
L 128.345122 271.685328 
L 128.683374 270.97569 
L 128.937063 270.907 
L 129.106189 271.097226 
L 129.359879 271.748616 
L 129.698131 273.297707 
L 130.205509 276.922371 
L 132.15046 292.957789 
L 132.573275 294.347666 
L 132.826964 294.641026 
L 132.996091 294.610267 
L 133.24978 294.233638 
L 133.588032 293.167201 
L 134.179974 290.268507 
L 134.771915 287.558128 
L 135.110167 286.870954 
L 135.279294 286.87119 
L 135.44842 287.115318 
L 135.702109 287.921547 
L 136.124924 290.231065 
L 137.816186 301.025213 
L 138.154438 301.920546 
L 138.408127 302.178463 
L 138.577253 302.152278 
L 138.830943 301.841523 
L 139.169195 301.007379 
L 139.845699 298.565976 
L 140.69133 295.788656 
L 141.114146 294.978123 
L 141.452398 294.700137 
L 141.706087 294.737896 
L 141.959776 295.009117 
L 142.298029 295.759634 
L 142.720844 297.319446 
L 143.397348 300.889268 
L 144.496668 306.671448 
L 145.08861 308.576242 
L 145.511425 309.299892 
L 145.849678 309.485215 
L 146.103367 309.385509 
L 146.441619 308.944013 
L 146.948997 307.802462 
L 147.540939 306.5275 
L 147.879191 306.275679 
L 148.13288 306.427092 
L 148.471133 307.082055 
L 148.978511 308.795848 
L 150.58521 314.836922 
L 151.008025 315.614799 
L 151.261714 315.804286 
L 151.515403 315.772887 
L 151.853656 315.440394 
L 152.445597 314.373319 
L 153.291228 312.87746 
L 153.798606 312.37014 
L 154.221422 312.227844 
L 154.559674 312.332356 
L 154.897926 312.674015 
L 155.320742 313.477858 
L 155.912683 315.226211 
L 157.181129 319.209745 
L 157.773071 320.348816 
L 158.365012 321.051835 
L 158.787828 321.264821 
L 159.12608 321.207849 
L 159.548895 320.857419 
L 160.394526 320.010601 
L 160.732778 320.011966 
L 161.07103 320.307123 
L 161.578409 321.175109 
L 163.861612 325.746803 
L 164.199864 325.87851 
L 164.538116 325.765595 
L 165.045495 325.293175 
L 165.975689 324.402135 
L 166.56763 324.143922 
L 167.159572 324.130145 
L 167.582387 324.331169 
L 168.005202 324.785468 
L 168.597144 325.835277 
L 169.696464 327.914282 
L 170.372968 328.668934 
L 171.472288 329.517052 
L 171.895104 329.617644 
L 172.317919 329.491905 
L 173.248113 329.078702 
L 173.670928 329.211455 
L 174.26287 329.728209 
L 175.36219 331.023568 
L 176.630636 332.616451 
L 177.053451 332.728871 
L 177.476266 332.576963 
L 178.829276 331.856412 
L 179.674906 331.782154 
L 180.266848 331.89162 
L 180.774226 332.227404 
L 181.450731 333.028385 
L 182.211798 333.885848 
L 182.80374 334.232242 
L 183.90306 334.799695 
L 184.579564 335.13558 
L 185.086943 335.113773 
L 186.1017 334.919255 
L 186.693641 335.129393 
L 188.131213 335.918216 
L 189.653349 337.177773 
L 190.076164 337.124451 
L 191.682862 336.62337 
L 193.035872 336.687916 
L 193.54325 336.926655 
L 195.234511 338.008574 
L 196.333831 338.224801 
L 197.602277 338.785851 
L 198.447908 338.658464 
L 199.03985 338.700447 
L 201.069363 339.259189 
L 202.33781 340.120606 
L 202.845188 340.050064 
L 204.113634 339.699239 
L 205.889459 339.778608 
L 206.4814 340.040867 
L 207.496157 340.54384 
L 208.088098 340.519175 
L 208.849166 340.486012 
L 209.441108 340.742771 
L 210.202175 341.057787 
L 210.794117 341.027923 
L 211.639747 341.001692 
L 212.654504 341.046216 
L 213.415572 341.038833 
L 213.92295 341.28615 
L 214.937707 341.898265 
L 215.445086 341.865875 
L 216.882658 341.534999 
L 218.996735 341.722687 
L 220.265181 342.147127 
L 220.941685 341.977148 
L 221.533627 341.901392 
L 222.041005 342.07197 
L 222.971199 342.431657 
L 223.732267 342.375976 
L 224.66246 342.41247 
L 225.338965 342.344384 
L 226.100033 342.235728 
L 226.607411 342.423044 
L 227.706731 342.980817 
L 228.21411 342.904461 
L 229.397993 342.611553 
L 231.596632 342.744534 
L 232.949642 343.094227 
L 233.626146 342.863966 
L 234.218088 342.744493 
L 234.725466 342.889623 
L 235.65566 343.236205 
L 236.501291 343.181949 
L 238.361678 343.003917 
L 238.869057 342.951673 
L 239.376435 343.142328 
L 240.391192 343.623714 
L 240.89857 343.550265 
L 242.082453 343.268531 
L 244.450219 343.446591 
L 245.464976 343.720078 
L 245.972355 343.596882 
L 246.902548 343.322934 
L 247.409927 343.465471 
L 248.424684 343.824483 
L 250.454197 343.756311 
L 251.722643 343.545508 
L 252.314585 343.846776 
L 252.99109 344.145247 
L 253.498468 344.099625 
L 254.851477 343.791308 
L 257.388369 344.044257 
L 258.064874 344.199803 
L 258.572252 344.089442 
L 259.587009 343.74361 
L 260.094388 343.87036 
L 261.109144 344.214364 
L 263.054095 344.153263 
L 264.491667 343.906108 
L 265.252735 344.30593 
L 265.760113 344.455718 
L 266.267492 344.369805 
L 267.366812 344.082396 
L 269.565452 344.170952 
L 271.003024 344.437291 
L 271.679528 344.146882 
L 272.27147 343.982211 
L 272.778848 344.099607 
L 273.793605 344.433762 
L 275.738556 344.367229 
L 277.260691 344.124105 
L 278.6137 344.618459 
L 279.290205 344.409543 
L 280.051273 344.246325 
L 282.334475 344.352739 
L 283.602922 344.605541 
L 284.194863 344.373708 
L 284.871368 344.121466 
L 285.378746 344.195512 
L 286.562629 344.557194 
L 288.761269 344.382611 
L 289.6069 344.153428 
L 290.114278 344.303671 
L 291.129035 344.734637 
L 291.636413 344.651691 
L 292.735733 344.367243 
L 295.018936 344.476028 
L 296.287382 344.740153 
L 296.879324 344.51799 
L 297.555828 344.279264 
L 298.063207 344.363784 
L 299.24709 344.741583 
L 301.44573 344.577403 
L 302.29136 344.364004 
L 302.798739 344.524009 
L 303.813496 344.952893 
L 304.320874 344.865465 
L 305.420194 344.577072 
L 307.703397 344.683206 
L 308.971843 344.936477 
L 309.563785 344.706094 
L 310.240289 344.45651 
L 310.747668 344.533127 
L 311.931551 344.900159 
L 314.130191 344.728404 
L 314.975821 344.502717 
L 315.4832 344.655125 
L 316.497957 345.073658 
L 317.005335 344.983649 
L 318.104655 344.692911 
L 320.387858 344.797634 
L 321.656304 345.045102 
L 322.248245 344.810221 
L 322.92475 344.554587 
L 323.432128 344.626676 
L 324.616011 344.987081 
L 326.814651 344.81134 
L 327.660282 344.579076 
L 328.16766 344.727256 
L 329.182417 345.139841 
L 329.689796 345.048302 
L 330.789116 344.756108 
L 333.072319 344.860102 
L 334.340765 345.104576 
L 334.932706 344.867295 
L 335.609211 344.608365 
L 336.116589 344.677922 
L 337.300472 345.034383 
L 339.499112 344.856564 
L 340.344743 344.620789 
L 340.852121 344.766614 
L 341.866878 345.19173 
L 342.374257 345.107351 
L 343.473576 344.821164 
L 345.756779 344.92856 
L 347.025225 345.188546 
L 347.617167 344.963528 
L 348.293672 344.720995 
L 348.80105 344.802838 
L 349.984933 345.177547 
L 352.183573 345.01184 
L 353.029204 344.794738 
L 353.536582 344.952144 
L 354.551339 345.377736 
L 355.058717 345.289532 
L 356.158037 344.999968 
L 358.44124 345.105256 
L 359.709686 345.356584 
L 360.301628 345.12476 
L 360.978132 344.872975 
L 361.485511 344.947952 
L 362.669394 345.313201 
L 364.868034 345.14083 
L 365.713664 344.913015 
L 366.221043 345.063858 
L 367.2358 345.480614 
L 367.743178 345.390242 
L 368.842498 345.098725 
L 371.125701 345.202883 
L 372.394147 345.449548 
L 372.986089 345.213993 
L 373.662593 344.957047 
L 374.169972 345.028085 
L 375.353855 345.387497 
L 377.552494 345.211621 
L 378.398125 344.978079 
L 378.905504 345.125274 
L 379.92026 345.536968 
L 380.427639 345.445318 
L 381.526959 345.152602 
L 383.810162 345.256174 
L 385.078608 345.500431 
L 385.670549 345.262887 
L 386.347054 345.003135 
L 386.854432 345.071972 
L 388.038315 345.427909 
L 390.236955 345.250204 
L 391.082586 345.013604 
L 391.589964 345.158767 
L 392.604721 345.583505 
L 393.1121 345.499166 
L 394.21142 345.212618 
L 396.494622 345.319665 
L 397.763069 345.57973 
L 398.35501 345.35467 
L 399.031515 345.111581 
L 399.538893 345.192889 
L 400.722776 345.56735 
L 402.921416 345.401882 
L 403.767047 345.184194 
L 404.274425 345.341116 
L 405.289182 345.766624 
L 405.79656 345.678551 
L 406.89588 345.388724 
L 409.179083 345.493698 
L 410.447529 345.745252 
L 411.039471 345.513502 
L 411.715975 345.261306 
L 412.223354 345.33585 
L 413.407237 345.70101 
L 415.605877 345.528942 
L 416.451507 345.300665 
L 416.958886 345.451122 
L 417.973643 345.86796 
L 418.481021 345.777771 
L 419.580341 345.48605 
L 421.863544 345.589912 
L 423.13199 345.836875 
L 423.723932 345.601454 
L 424.400436 345.344174 
L 424.907815 345.414837 
L 426.091698 345.77425 
L 428.290338 345.598707 
L 429.135968 345.364766 
L 429.643347 345.511628 
L 430.658104 345.923498 
L 431.165482 345.832062 
L 432.264802 345.539177 
L 434.548005 345.642461 
L 435.816451 345.887049 
L 436.408392 345.649672 
L 437.084897 345.389627 
L 437.592275 345.458119 
L 438.776158 345.814108 
L 440.974798 345.63675 
L 441.820429 345.399784 
L 442.327807 345.544642 
L 443.342564 345.96908 
L 443.849943 345.884706 
L 444.949263 345.597784 
L 447.232466 345.704418 
L 448.500912 345.964258 
L 449.092853 345.738928 
L 449.769358 345.49496 
L 450.276736 345.575483 
L 451.460619 345.949346 
L 453.659259 345.783792 
L 454.50489 345.565067 
L 455.012268 345.721271 
L 456.027025 346.146426 
L 456.534404 346.058437 
L 457.633723 345.76834 
L 459.916926 345.872967 
L 461.185372 346.124569 
L 461.777314 345.892763 
L 462.453819 345.639977 
L 462.961197 345.713949 
L 464.14508 346.078794 
L 466.34372 345.906847 
L 467.189351 345.677866 
L 467.696729 345.827806 
L 468.711486 346.244563 
L 469.218864 346.154524 
L 470.318184 345.862593 
L 472.601387 345.966143 
L 473.869833 346.213301 
L 474.461775 345.977943 
L 475.138279 345.720236 
L 475.645658 345.790448 
L 476.829541 346.149724 
L 479.028181 345.97441 
L 479.873811 345.739943 
L 480.38119 345.886401 
L 481.395947 346.298345 
L 481.903325 346.207098 
L 483.002645 345.91404 
L 485.201285 345.997376 
L 486.638857 346.242483 
L 487.315362 345.937182 
L 487.907303 345.757929 
L 488.414682 345.864188 
L 489.429438 346.187332 
L 491.374389 346.11675 
L 492.896524 345.844726 
L 493.488466 346.145986 
L 493.488466 346.145986 
" style="fill:none;stroke:#1f77b4;stroke-linecap:square;stroke-width:1.5;"/>
   </g>
   <g id="patch_8">
    <path d="M 67.379375 353.037187 
L 67.379375 204.782642 
" style="fill:none;stroke:#000000;stroke-linecap:square;stroke-linejoin:miter;stroke-width:0.8;"/>
   </g>
   <g id="patch_9">
    <path d="M 513.779375 353.037187 
L 513.779375 204.782642 
" style="fill:none;stroke:#000000;stroke-linecap:square;stroke-linejoin:miter;stroke-width:0.8;"/>
   </g>
   <g id="patch_10">
    <path d="M 67.379375 353.037187 
L 513.779375 353.037187 
" style="fill:none;stroke:#000000;stroke-linecap:square;stroke-linejoin:miter;stroke-width:0.8;"/>
   </g>
   <g id="patch_11">
    <path d="M 67.379375 204.782642 
L 513.779375 204.782642 
" style="fill:none;stroke:#000000;stroke-linecap:square;stroke-linejoin:miter;stroke-width:0.8;"/>
   </g>
   <g id="text_21">
    <!-- Estimated Coefficient of Sine Fundamental -->
    <g transform="translate(98.287344 198.782642)scale(0.18 -0.18)">
     <defs>
      <path d="M 64.40625 67.28125 
L 64.40625 56.890625 
Q 59.421875 61.53125 53.78125 63.8125 
Q 48.140625 66.109375 41.796875 66.109375 
Q 29.296875 66.109375 22.65625 58.46875 
Q 16.015625 50.828125 16.015625 36.375 
Q 16.015625 21.96875 22.65625 14.328125 
Q 29.296875 6.6875 41.796875 6.6875 
Q 48.140625 6.6875 53.78125 8.984375 
Q 59.421875 11.28125 64.40625 15.921875 
L 64.40625 5.609375 
Q 59.234375 2.09375 53.4375 0.328125 
Q 47.65625 -1.421875 41.21875 -1.421875 
Q 24.65625 -1.421875 15.125 8.703125 
Q 5.609375 18.84375 5.609375 36.375 
Q 5.609375 53.953125 15.125 64.078125 
Q 24.65625 74.21875 41.21875 74.21875 
Q 47.75 74.21875 53.53125 72.484375 
Q 59.328125 70.75 64.40625 67.28125 
z
" id="DejaVuSans-67"/>
      <path d="M 53.515625 70.515625 
L 53.515625 60.890625 
Q 47.90625 63.578125 42.921875 64.890625 
Q 37.9375 66.21875 33.296875 66.21875 
Q 25.25 66.21875 20.875 63.09375 
Q 16.5 59.96875 16.5 54.203125 
Q 16.5 49.359375 19.40625 46.890625 
Q 22.3125 44.4375 30.421875 42.921875 
L 36.375 41.703125 
Q 47.40625 39.59375 52.65625 34.296875 
Q 57.90625 29 57.90625 20.125 
Q 57.90625 9.515625 50.796875 4.046875 
Q 43.703125 -1.421875 29.984375 -1.421875 
Q 24.8125 -1.421875 18.96875 -0.25 
Q 13.140625 0.921875 6.890625 3.21875 
L 6.890625 13.375 
Q 12.890625 10.015625 18.65625 8.296875 
Q 24.421875 6.59375 29.984375 6.59375 
Q 38.421875 6.59375 43.015625 9.90625 
Q 47.609375 13.234375 47.609375 19.390625 
Q 47.609375 24.75 44.3125 27.78125 
Q 41.015625 30.8125 33.5 32.328125 
L 27.484375 33.5 
Q 16.453125 35.6875 11.515625 40.375 
Q 6.59375 45.0625 6.59375 53.421875 
Q 6.59375 63.09375 13.40625 68.65625 
Q 20.21875 74.21875 32.171875 74.21875 
Q 37.3125 74.21875 42.625 73.28125 
Q 47.953125 72.359375 53.515625 70.515625 
z
" id="DejaVuSans-83"/>
      <path d="M 9.421875 75.984375 
L 18.40625 75.984375 
L 18.40625 0 
L 9.421875 0 
z
" id="DejaVuSans-108"/>
     </defs>
     <use xlink:href="#DejaVuSans-69"/>
     <use x="63.183594" xlink:href="#DejaVuSans-115"/>
     <use x="115.283203" xlink:href="#DejaVuSans-116"/>
     <use x="154.492188" xlink:href="#DejaVuSans-105"/>
     <use x="182.275391" xlink:href="#DejaVuSans-109"/>
     <use x="279.6875" xlink:href="#DejaVuSans-97"/>
     <use x="340.966797" xlink:href="#DejaVuSans-116"/>
     <use x="380.175781" xlink:href="#DejaVuSans-101"/>
     <use x="441.699219" xlink:href="#DejaVuSans-100"/>
     <use x="505.175781" xlink:href="#DejaVuSans-32"/>
     <use x="536.962891" xlink:href="#DejaVuSans-67"/>
     <use x="606.787109" xlink:href="#DejaVuSans-111"/>
     <use x="667.96875" xlink:href="#DejaVuSans-101"/>
     <use x="729.492188" xlink:href="#DejaVuSans-102"/>
     <use x="764.697266" xlink:href="#DejaVuSans-102"/>
     <use x="799.902344" xlink:href="#DejaVuSans-105"/>
     <use x="827.685547" xlink:href="#DejaVuSans-99"/>
     <use x="882.666016" xlink:href="#DejaVuSans-105"/>
     <use x="910.449219" xlink:href="#DejaVuSans-101"/>
     <use x="971.972656" xlink:href="#DejaVuSans-110"/>
     <use x="1035.351562" xlink:href="#DejaVuSans-116"/>
     <use x="1074.560547" xlink:href="#DejaVuSans-32"/>
     <use x="1106.347656" xlink:href="#DejaVuSans-111"/>
     <use x="1167.529297" xlink:href="#DejaVuSans-102"/>
     <use x="1202.734375" xlink:href="#DejaVuSans-32"/>
     <use x="1234.521484" xlink:href="#DejaVuSans-83"/>
     <use x="1297.998047" xlink:href="#DejaVuSans-105"/>
     <use x="1325.78125" xlink:href="#DejaVuSans-110"/>
     <use x="1389.160156" xlink:href="#DejaVuSans-101"/>
     <use x="1450.683594" xlink:href="#DejaVuSans-32"/>
     <use x="1482.470703" xlink:href="#DejaVuSans-70"/>
     <use x="1534.490234" xlink:href="#DejaVuSans-117"/>
     <use x="1597.869141" xlink:href="#DejaVuSans-110"/>
     <use x="1661.248047" xlink:href="#DejaVuSans-100"/>
     <use x="1724.724609" xlink:href="#DejaVuSans-97"/>
     <use x="1786.003906" xlink:href="#DejaVuSans-109"/>
     <use x="1883.416016" xlink:href="#DejaVuSans-101"/>
     <use x="1944.939453" xlink:href="#DejaVuSans-110"/>
     <use x="2008.318359" xlink:href="#DejaVuSans-116"/>
     <use x="2047.527344" xlink:href="#DejaVuSans-97"/>
     <use x="2108.806641" xlink:href="#DejaVuSans-108"/>
    </g>
   </g>
  </g>
 </g>
 <defs>
  <clipPath id="p72f859cd6e">
   <rect height="148.254545" width="446.4" x="67.379375" y="26.877187"/>
  </clipPath>
  <clipPath id="pb0ba2aeb93">
   <rect height="148.254545" width="446.4" x="67.379375" y="204.782642"/>
  </clipPath>
 </defs>
</svg>
